<svg xmlns="http://www.w3.org/2000/svg" xmlns:xlink="http://www.w3.org/1999/xlink" xmlns:lucid="lucid" width="1462" height="742"><g transform="translate(21 861)" lucid:page-tab-id="0_0"><path d="M200-794a6 6 0 0 1 6-6h528a6 6 0 0 1 6 6v228a6 6 0 0 1-6 6H206a6 6 0 0 1-6-6z" stroke="#282c33" stroke-width="2" fill="#fff3d9"/><path d="M0-614a6 6 0 0 1 6-6h168a6 6 0 0 1 6 6v36.67a6 6 0 0 1-6 6H6a6 6 0 0 1-6-6z" stroke="#82755b" stroke-width="2" fill="#cfe4ff"/><use xlink:href="#a" transform="matrix(1,0,0,1,12,-608) translate(5.932098765432102 19.34027777777778)"/><use xlink:href="#b" transform="matrix(1,0,0,1,12,-608) translate(73.70987654320987 19.34027777777778)"/><path d="M0-774a6 6 0 0 1 6-6h168a6 6 0 0 1 6 6v36.67a6 6 0 0 1-6 6H6a6 6 0 0 1-6-6z" stroke="#82755b" stroke-width="2" fill="#ffd9d9"/><use xlink:href="#c" transform="matrix(1,0,0,1,12,-768) translate(1.580246913580254 19.34027777777778)"/><use xlink:href="#b" transform="matrix(1,0,0,1,12,-768) translate(78.06172839506173 19.34027777777778)"/><path d="M40-708.96a5.52 5.52 0 0 1 5.52-5.52h91.82a2.76 2.76 0 0 0 2.76-2.76 1.06 1.06 0 0 1 1.85-.7l4.08 4.52a6.67 6.67 0 0 1 0 8.92l-4.08 4.53a1.06 1.06 0 0 1-1.84-.7 2.76 2.76 0 0 0-2.75-2.77H45.52a5.52 5.52 0 0 1-5.52-5.52zM40-648.96a5.52 5.52 0 0 1 5.52-5.52h91.82a2.76 2.76 0 0 0 2.76-2.76 1.06 1.06 0 0 1 1.85-.7l4.08 4.52a6.67 6.67 0 0 1 0 8.92l-4.08 4.53a1.06 1.06 0 0 1-1.84-.7 2.76 2.76 0 0 0-2.75-2.77H45.52a5.52 5.52 0 0 1-5.52-5.52z" stroke="#fc9432" stroke-width="2" fill="#fc9432"/><path d="M240-768a6 6 0 0 1 6-6h48a6 6 0 0 1 6 6v176a6 6 0 0 1-6 6h-48a6 6 0 0 1-6-6z" stroke="#282c33" stroke-width="2" fill="#ffdda6"/><use xlink:href="#d" transform="matrix(-1.8369701987210297e-16,-1,1,-1.8369701987210297e-16,245.0000000000001,-591.005877507045) translate(11.993827160493822 30.27777777777778)"/><use xlink:href="#e" transform="matrix(-1.8369701987210297e-16,-1,1,-1.8369701987210297e-16,245.0000000000001,-591.005877507045) translate(108.10493827160494 30.27777777777778)"/><path d="M360-754a6 6 0 0 1 6-6h78a6 6 0 0 1 6 6v148a6 6 0 0 1-6 6h-78a6 6 0 0 1-6-6z" stroke="#282c33" stroke-width="2" fill="#ffdda6"/><use xlink:href="#f" transform="matrix(-1.8369701987210297e-16,-1,1,-1.8369701987210297e-16,364.9999999999999,-605) translate(52.77777777777778 20.27777777777778)"/><use xlink:href="#g" transform="matrix(-1.8369701987210297e-16,-1,1,-1.8369701987210297e-16,364.9999999999999,-605) translate(84.87654320987654 20.27777777777778)"/><use xlink:href="#h" transform="matrix(-1.8369701987210297e-16,-1,1,-1.8369701987210297e-16,364.9999999999999,-605) translate(19.537037037037038 46.94444444444444)"/><use xlink:href="#i" transform="matrix(-1.8369701987210297e-16,-1,1,-1.8369701987210297e-16,364.9999999999999,-605) translate(33.117283950617285 73.61111111111111)"/><path d="M480-772.66a6 6 0 0 1 6-6h224.3a6 6 0 0 1 6 6v51.33a6 6 0 0 1-6 6H486a6 6 0 0 1-6-6z" stroke="#282c33" stroke-width="2" fill="#fff0f0"/><use xlink:href="#j" transform="matrix(1,0,0,1,485.00000000000006,-773.663727913144) translate(23.530864197530875 21.15277777777778)"/><use xlink:href="#k" transform="matrix(1,0,0,1,485.00000000000006,-773.663727913144) translate(76.49382716049384 21.15277777777778)"/><use xlink:href="#l" transform="matrix(1,0,0,1,485.00000000000006,-773.663727913144) translate(166.4320987654321 21.15277777777778)"/><use xlink:href="#m" transform="matrix(1,0,0,1,485.00000000000006,-773.663727913144) translate(49.39506172839506 47.81944444444444)"/><use xlink:href="#n" transform="matrix(1,0,0,1,485.00000000000006,-773.663727913144) translate(130.7530864197531 47.81944444444444)"/><path d="M480-634a6 6 0 0 1 6-6h224.3a6 6 0 0 1 6 6v42a6 6 0 0 1-6 6H486a6 6 0 0 1-6-6z" stroke="#282c33" stroke-width="2" fill="#fff0f0"/><use xlink:href="#o" transform="matrix(1,0,0,1,485,-635) translate(6.8950617283950635 26.02777777777778)"/><use xlink:href="#p" transform="matrix(1,0,0,1,485,-635) translate(56.21604938271605 26.02777777777778)"/><use xlink:href="#n" transform="matrix(1,0,0,1,485,-635) translate(173.2530864197531 26.02777777777778)"/><path d="M240-834a6 6 0 0 1 6-6h368a6 6 0 0 1 6 6v16a6 6 0 0 1-6 6H246a6 6 0 0 1-6-6z" stroke="#000" stroke-opacity="0" stroke-width="2" fill-opacity="0"/><use xlink:href="#q" transform="matrix(1,0,0,1,245,-835) translate(84.53703703703704 17.77777777777778)"/><use xlink:href="#r" transform="matrix(1,0,0,1,245,-835) translate(140.0925925925926 17.77777777777778)"/><use xlink:href="#s" transform="matrix(1,0,0,1,245,-835) translate(183.30246913580248 17.77777777777778)"/><use xlink:href="#n" transform="matrix(1,0,0,1,245,-835) translate(238.61111111111111 17.77777777777778)"/><path d="M0-474a6 6 0 0 1 6-6h528a6 6 0 0 1 6 6v328a6 6 0 0 1-6 6H6a6 6 0 0 1-6-6zM820-794a6 6 0 0 1 6-6h588a6 6 0 0 1 6 6v228a6 6 0 0 1-6 6H826a6 6 0 0 1-6-6z" stroke="#282c33" stroke-width="2" fill="#fff3d9"/><path d="M940-834a6 6 0 0 1 6-6h368a6 6 0 0 1 6 6v16a6 6 0 0 1-6 6H946a6 6 0 0 1-6-6z" stroke="#000" stroke-opacity="0" stroke-width="2" fill-opacity="0"/><use xlink:href="#j" transform="matrix(1,0,0,1,945,-835) translate(69.16666666666666 17.77777777777778)"/><use xlink:href="#t" transform="matrix(1,0,0,1,945,-835) translate(122.12962962962962 17.77777777777778)"/><use xlink:href="#u" transform="matrix(1,0,0,1,945,-835) translate(191.08024691358025 17.77777777777778)"/><path d="M1080-756.5h47.8v40.53H1080v-40.52z" fill="#a5a9ed"/><path d="M1080-766v47.84h47.8V-766z" fill="#cfe4ff"/><path d="M1087.45-759.5h8.47v7.6h-8.47v-7.62zM1099.26-757.47h21.13v3.5h-21.14v-3.5zM1099.26-743.86h21.13v3.52h-21.14v-3.52zM1099.26-730.24h21.13v3.52h-21.14v-3.52zM1087.45-745.9h8.47v7.6h-8.47v-7.6zM1087.45-732.3h8.47v7.63h-8.47v-7.62z" fill="#fff"/><path d="M1160-756.5h47.8v40.53H1160v-40.52z" fill="#a5a9ed"/><path d="M1160-766v47.84h47.8V-766z" fill="#cfe4ff"/><path d="M1167.45-759.5h8.47v7.6h-8.47v-7.62zM1179.26-757.47h21.13v3.5h-21.14v-3.5zM1179.26-743.86h21.13v3.52h-21.14v-3.52zM1179.26-730.24h21.13v3.52h-21.14v-3.52zM1167.45-745.9h8.47v7.6h-8.47v-7.6zM1167.45-732.3h8.47v7.63h-8.47v-7.62z" fill="#fff"/><path d="M1240-756.5h47.8v40.53H1240v-40.52z" fill="#a5a9ed"/><path d="M1240-766v47.84h47.8V-766z" fill="#cfe4ff"/><path d="M1247.45-759.5h8.47v7.6h-8.47v-7.62zM1259.26-757.47h21.13v3.5h-21.14v-3.5zM1259.26-743.86h21.13v3.52h-21.14v-3.52zM1259.26-730.24h21.13v3.52h-21.14v-3.52zM1247.45-745.9h8.47v7.6h-8.47v-7.6zM1247.45-732.3h8.47v7.63h-8.47v-7.62z" fill="#fff"/><path d="M1320-756.5h47.8v40.53H1320v-40.52z" fill="#a5a9ed"/><path d="M1320-766v47.84h47.8V-766z" fill="#cfe4ff"/><path d="M1327.45-759.5h8.47v7.6h-8.47v-7.62zM1339.26-757.47h21.13v3.5h-21.14v-3.5zM1339.26-743.86h21.13v3.52h-21.14v-3.52zM1339.26-730.24h21.13v3.52h-21.14v-3.52zM1327.45-745.9h8.47v7.6h-8.47v-7.6zM1327.45-732.3h8.47v7.63h-8.47v-7.62z" fill="#fff"/><path d="M840-794a6 6 0 0 1 6-6h208a6 6 0 0 1 6 6v108a6 6 0 0 1-6 6H846a6 6 0 0 1-6-6z" stroke="#000" stroke-opacity="0" stroke-width="2" fill-opacity="0"/><use xlink:href="#j" transform="matrix(1,0,0,1,845,-795) translate(9.530526620370381 59.75043402777778)"/><use xlink:href="#v" transform="matrix(1,0,0,1,845,-795) translate(62.49348958333334 59.75043402777778)"/><use xlink:href="#w" transform="matrix(1,0,0,1,845,-795) translate(82.24657600308643 59.75043402777778)"/><use xlink:href="#x" transform="matrix(1,0,0,1,845,-795) translate(100.76509452160495 59.75043402777778)"/><use xlink:href="#y" transform="matrix(1,0,0,1,845,-795) translate(193.12379436728395 59.75043402777778)"/><path d="M1360-786.02a6 6 0 0 1 6-6h48a6 6 0 0 1 6 6v90.08a6 6 0 0 1-6 6h-48a6 6 0 0 1-6-6z" stroke="#000" stroke-opacity="0" stroke-width="2" fill-opacity="0"/><use xlink:href="#z" transform="matrix(1,0,0,1,1365,-787.0220099105627) translate(21.32716049382716 49.74652777777778)"/><path d="M1218.84-705a5.26 5.26 0 0 1 5.2 5.32l-.32 32.62a2.63 2.63 0 0 0 2.6 2.66 1 1 0 0 1 .66 1.77l-4.15 3.65a6.67 6.67 0 0 1-8.92-.1l-4.06-3.73a1 1 0 0 1 .7-1.76 2.63 2.63 0 0 0 2.65-2.6l.33-32.62a5.26 5.26 0 0 1 5.3-5.2z" stroke="#fc9432" stroke-width="2" fill="#fc9432"/><path d="M1060-642.1a6 6 0 0 1 6-6h321.9a6 6 0 0 1 6 6v51.34a6 6 0 0 1-6 6H1066a6 6 0 0 1-6-6z" stroke="#82755b" stroke-width="2" fill="#e3fae3"/><use xlink:href="#A" transform="matrix(1,0,0,1,1065,-643.0962720868558) translate(28.644965277777743 21.87543402777778)"/><use xlink:href="#B" transform="matrix(1,0,0,1,1065,-643.0962720868558) translate(162 21.87543402777778)"/><use xlink:href="#C" transform="matrix(1,0,0,1,1065,-643.0962720868558) translate(1.9739583333333712 49.013020833333336)"/><use xlink:href="#D" transform="matrix(1,0,0,1,1065,-643.0962720868558) translate(81.98697916666671 49.013020833333336)"/><path d="M718.8-738.8h4.78m6.37 0h9.54m6.36 0h9.55m6.38 0h9.55m6.36 0h9.54m6.37 0h4.78" stroke="#3a414a" stroke-width="3" fill="none"/><path d="M718.85-737.32h-1.54v-2.94h1.55z" stroke="#3a414a" stroke-width=".05" fill="#3a414a"/><path d="M814.15-738.8l-14.27 4.65v-9.27z" stroke="#3a414a" stroke-width="3" fill="#3a414a"/><path d="M840-642.1a6 6 0 0 1 6-6h156.15a6 6 0 0 1 6 6v51.34a6 6 0 0 1-6 6H846a6 6 0 0 1-6-6z" stroke="#282c33" stroke-width="2" fill="#fff0f0"/><use xlink:href="#E" transform="matrix(1,0,0,1,845,-643.0962720868558) translate(8.018518518518519 21.15277777777778)"/><use xlink:href="#F" transform="matrix(1,0,0,1,845,-643.0962720868558) translate(104.19135802469135 21.15277777777778)"/><use xlink:href="#G" transform="matrix(1,0,0,1,845,-643.0962720868558) translate(24.685185185185183 47.81944444444444)"/><use xlink:href="#H" transform="matrix(1,0,0,1,845,-643.0962720868558) translate(71.53703703703704 47.81944444444444)"/><path d="M1054.08-613a5 5 0 0 1-5 5h-23.5a2.5 2.5 0 0 0-2.5 2.5.96.96 0 0 1-1.68.64l-3.3-3.68a6.67 6.67 0 0 1 0-8.92l3.3-3.68a.96.96 0 0 1 1.68.64 2.5 2.5 0 0 0 2.5 2.5h23.5a5 5 0 0 1 5 5z" stroke="#fc9432" stroke-width="2" fill="#fc9432"/><path d="M554.36-583.5v4.75m0 6.33v9.5m0 6.33v9.5m0 6.35v4.75l.07.94.22.9.37.88.5.8.6.72.7.6.82.5.87.37.92.23.94.07h4.5m5.97 0h8.97m5.98 0h8.98m5.98 0h8.97m6 0h8.96m6 0h8.96m5.98 0h8.97m5.98 0h8.98m5.98 0h8.98m5.98 0h8.97m6 0h8.96m5.97 0h8.97m5.98 0h8.98m5.98 0h8.97m5.98 0h8.97m6 0h8.96m5.98 0h8.97m6 0h8.97m5.98 0h8.97m5.98 0h8.98m5.98 0h8.97m5.98 0h8.98m6 0h8.96m5.98 0h8.97m5.97 0h8.98m5.98 0h8.97m5.98 0h8.97m6 0h8.96m6 0h8.96m5.98 0h8.98m5.98 0h8.97m5.98 0h8.97m5.98 0h8.98m5.98 0h8.97m5.98 0h4.5l.94.07.9.22.88.35.8.5.72.6.6.72.5.8.37.88.23.9.07.95v4.1m0 5.44v8.18m0 5.45v8.17m0 5.45v4.08" stroke="#3a414a" stroke-width="3" fill="none"/><path d="M555.84-583.47h-2.95V-585h2.94z" stroke="#3a414a" stroke-width=".05" fill="#3a414a"/><path d="M1074.8-467.35l-4.63-14.27h9.26z" stroke="#3a414a" stroke-width="3" fill="#3a414a"/><path d="M840-737a6 6 0 0 1 6-6h208a6 6 0 0 1 6 6v108a6 6 0 0 1-6 6H846a6 6 0 0 1-6-6z" stroke="#000" stroke-opacity="0" stroke-width="2" fill-opacity="0"/><use xlink:href="#j" transform="matrix(1,0,0,1,845,-738.0029387535226) translate(9.382716049382736 59.02777777777778)"/><use xlink:href="#I" transform="matrix(1,0,0,1,845,-738.0029387535226) translate(62.3456790123457 59.02777777777778)"/><use xlink:href="#w" transform="matrix(1,0,0,1,845,-738.0029387535226) translate(83.33333333333334 59.02777777777778)"/><use xlink:href="#J" transform="matrix(1,0,0,1,845,-738.0029387535226) translate(101.85185185185186 59.02777777777778)"/><path d="M1040-455.5a6 6 0 0 1 6-6h368a6 6 0 0 1 6 6V-146a6 6 0 0 1-6 6h-368a6 6 0 0 1-6-6z" stroke="#282c33" stroke-width="2" fill="#fff3d9"/><path d="M40-460.5a6 6 0 0 1 6-6h88a6 6 0 0 1 6 6v87.35a6 6 0 0 1-6 6H46a6 6 0 0 1-6-6z" stroke="#82755b" stroke-width="2" fill="#ffd9d9"/><path d="M55-465.15v97M69.3-465.5v97.35M83.57-465.5v97.35M97.86-465.5v97.35M112.14-465.15v97.65M126.43-464.85v97.35M41-452h98M41-437.17h98M41-422.46h98M41-407.76h98M41-393.06h98M41-379.78h98" stroke="#82755b" stroke-width="2" stroke-linecap="round" fill="none"/><path d="M40-260.5a6 6 0 0 1 6-6h88a6 6 0 0 1 6 6v87.35a6 6 0 0 1-6 6H46a6 6 0 0 1-6-6z" stroke="#82755b" stroke-width="2" fill="#cfe4ff"/><path d="M55-265.15v97M69.3-265.5v97.35M83.57-265.5v97.35M97.86-265.5v97.35M112.14-265.15v97.65M126.43-264.85v97.35M41-252h98M41-237.16h98M41-222.46h98M41-207.76h98M41-193.06h98M41-179.78h98" stroke="#82755b" stroke-width="2" stroke-linecap="round" fill="none"/><path d="M159.06-412.42a5.52 5.52 0 0 1 5.52-5.52h91.82a2.76 2.76 0 0 0 2.76-2.76 1.06 1.06 0 0 1 1.85-.7l4.08 4.52a6.67 6.67 0 0 1 0 8.92l-4.07 4.53a1.06 1.06 0 0 1-1.84-.7 2.76 2.76 0 0 0-2.76-2.77h-91.82a5.52 5.52 0 0 1-5.53-5.52zM160-217.8a5.52 5.52 0 0 1 5.52-5.53h91.83a2.76 2.76 0 0 0 2.75-2.76 1.06 1.06 0 0 1 1.85-.7l4.08 4.54a6.67 6.67 0 0 1 0 8.9l-4.08 4.54a1.06 1.06 0 0 1-1.84-.7 2.76 2.76 0 0 0-2.75-2.76h-91.83a5.52 5.52 0 0 1-5.52-5.53z" stroke="#fc9432" stroke-width="2" fill="#fc9432"/><path d="M307.8-455.5a6 6 0 0 1 6-6h168a6 6 0 0 1 6 6v36.67a6 6 0 0 1-6 6h-168a6 6 0 0 1-6-6z" stroke="#82755b" stroke-width="2" fill="#ffd9d9"/><use xlink:href="#K" transform="matrix(1,0,0,1,319.80631893521945,-449.49791619823407) translate(26.672839506172842 19.34027777777778)"/><use xlink:href="#n" transform="matrix(1,0,0,1,319.80631893521945,-449.49791619823407) translate(82.47530864197532 19.34027777777778)"/><path d="M307.8-388.06a6 6 0 0 1 6-6h168a6 6 0 0 1 6 6v36.66a6 6 0 0 1-6 6h-168a6 6 0 0 1-6-6z" stroke="#82755b" stroke-width="2" fill="#ffd9d9"/><use xlink:href="#L" transform="matrix(1,0,0,1,319.80631893521945,-382.0641580235015) translate(3.6481481481481524 19.34027777777778)"/><use xlink:href="#n" transform="matrix(1,0,0,1,319.80631893521945,-382.0641580235015) translate(105.5 19.34027777777778)"/><path d="M308.6-258.26a6 6 0 0 1 6-6h168a6 6 0 0 1 6 6v85.76a6 6 0 0 1-6 6h-168a6 6 0 0 1-6-6z" stroke="#82755b" stroke-width="2" fill="#cfe4ff"/><use xlink:href="#M" transform="matrix(1,0,0,1,320.5876479392981,-252.2615897961873) translate(38.55555555555556 27.02777777777778)"/><use xlink:href="#N" transform="matrix(1,0,0,1,320.5876479392981,-252.2615897961873) translate(91.58024691358025 27.02777777777778)"/><use xlink:href="#O" transform="matrix(1,0,0,1,320.5876479392981,-252.2615897961873) translate(31.734567901234563 53.69444444444445)"/><path d="M10.36-359.85a6 6 0 0 1 6-6h191.57a6 6 0 0 1 6 6v28a6 6 0 0 1-6 6H16.36a6 6 0 0 1-6-6z" stroke="#000" stroke-opacity="0" stroke-width="2" fill-opacity="0"/><use xlink:href="#c" transform="matrix(1,0,0,1,22.357142857142776,-353.85326666609507) translate(13.580246913580254 17.77777777777778)"/><use xlink:href="#b" transform="matrix(1,0,0,1,22.357142857142776,-353.85326666609507) translate(90.06172839506173 17.77777777777778)"/><path d="M20-306.93a6 6 0 0 1 6-6h168a6 6 0 0 1 6 6v36.67a6 6 0 0 1-6 6H26a6 6 0 0 1-6-6z" stroke="#000" stroke-opacity="0" stroke-width="2" fill-opacity="0"/><use xlink:href="#a" transform="matrix(1,0,0,1,31.999999999999886,-300.9282564628539) translate(5.932098765432102 19.34027777777778)"/><use xlink:href="#b" transform="matrix(1,0,0,1,31.999999999999886,-300.9282564628539) translate(73.70987654320987 19.34027777777778)"/><path d="M1090-494a6 6 0 0 1 6-6h318a6 6 0 0 1 6 6v16a6 6 0 0 1-6 6h-318a6 6 0 0 1-6-6z" stroke="#000" stroke-opacity="0" stroke-width="2" fill-opacity="0"/><use xlink:href="#o" transform="matrix(1,0,0,1,1095,-495) translate(21.944444444444457 17.77777777777778)"/><use xlink:href="#p" transform="matrix(1,0,0,1,1095,-495) translate(71.26543209876544 17.77777777777778)"/><use xlink:href="#u" transform="matrix(1,0,0,1,1095,-495) translate(188.30246913580248 17.77777777777778)"/><path d="M1065-268.5a6 6 0 0 1 6-6h318a6 6 0 0 1 6 6v77.3a6 6 0 0 1-6 6h-318a6 6 0 0 1-6-6z" stroke="#82755b" stroke-width="2" fill="#cfe4ff"/><use xlink:href="#a" transform="matrix(1,0,0,1,1077,-262.49234110311204) translate(33.46296296296296 38.40277777777778)"/><use xlink:href="#P" transform="matrix(1,0,0,1,1077,-262.49234110311204) translate(101.24074074074073 38.40277777777778)"/><use xlink:href="#Q" transform="matrix(1,0,0,1,1077,-262.49234110311204) translate(150.56172839506172 38.40277777777778)"/><path d="M1065-419.37a6 6 0 0 1 6-6h318a6 6 0 0 1 6 6v77.3a6 6 0 0 1-6 6h-318a6 6 0 0 1-6-6z" stroke="#82755b" stroke-width="2" fill="#ffd9d9"/><use xlink:href="#c" transform="matrix(1,0,0,1,1077,-413.3729978587287) translate(29.111111111111114 38.40277777777778)"/><use xlink:href="#P" transform="matrix(1,0,0,1,1077,-413.3729978587287) translate(105.5925925925926 38.40277777777778)"/><use xlink:href="#Q" transform="matrix(1,0,0,1,1077,-413.3729978587287) translate(154.91358024691357 38.40277777777778)"/><path d="M96.86-514a6 6 0 0 1 6-6h368a6 6 0 0 1 6 6v16a6 6 0 0 1-6 6h-368a6 6 0 0 1-6-6z" stroke="#000" stroke-opacity="0" stroke-width="2" fill-opacity="0"/><use xlink:href="#j" transform="matrix(1,0,0,1,101.85714285714278,-515) translate(96.26543209876543 17.77777777777778)"/><use xlink:href="#P" transform="matrix(1,0,0,1,101.85714285714278,-515) translate(149.2283950617284 17.77777777777778)"/><use xlink:href="#R" transform="matrix(1,0,0,1,101.85714285714278,-515) translate(198.54938271604937 17.77777777777778)"/><path d="M580-469.4a6 6 0 0 1 6-6h68a6 6 0 0 1 6 6v42.63a6 6 0 0 1-6 6h-68a6 6 0 0 1-6-6z" stroke="#282c33" stroke-width="2" fill="#fff0f0"/><path d="M581-465.3h78" stroke="#82755b" stroke-width="2" stroke-linecap="round" fill="none"/><g><path d="M596.8-474.4v52.63" stroke="#979ea8" stroke-width="2" stroke-linecap="round" fill="none"/></g><g><path d="M628.8-474.4v52.63" stroke="#979ea8" stroke-width="2" stroke-linecap="round" fill="none"/></g><path d="M580-398.07a6 6 0 0 1 6-6h68a6 6 0 0 1 6 6v42.62a6 6 0 0 1-6 6h-68a6 6 0 0 1-6-6z" stroke="#282c33" stroke-width="2" fill="#fff0f0"/><path d="M581-394h78" stroke="#82755b" stroke-width="2" stroke-linecap="round" fill="none"/><g><path d="M596.8-403.07v52.62" stroke="#979ea8" stroke-width="2" stroke-linecap="round" fill="none"/></g><g><path d="M628.8-403.07v52.62" stroke="#979ea8" stroke-width="2" stroke-linecap="round" fill="none"/></g><path d="M580-236.7a6 6 0 0 1 6-6h68a6 6 0 0 1 6 6v42.63a6 6 0 0 1-6 6h-68a6 6 0 0 1-6-6z" stroke="#282c33" stroke-width="2" fill="#edf5ff"/><path d="M581-232.6h78" stroke="#82755b" stroke-width="2" stroke-linecap="round" fill="none"/><g><path d="M596.8-241.7v52.63" stroke="#979ea8" stroke-width="2" stroke-linecap="round" fill="none"/></g><g><path d="M628.8-241.7v52.63" stroke="#979ea8" stroke-width="2" stroke-linecap="round" fill="none"/></g><path d="M840-401.1a6 6 0 0 1 6-6h68a6 6 0 0 1 6 6v42.64a6 6 0 0 1-6 6h-68a6 6 0 0 1-6-6z" stroke="#282c33" stroke-width="2" fill="#fff0f0"/><path d="M841-397h78" stroke="#82755b" stroke-width="2" stroke-linecap="round" fill="none"/><g><path d="M856.8-406.1v52.64" stroke="#979ea8" stroke-width="2" stroke-linecap="round" fill="none"/></g><g><path d="M888.8-406.1v52.64" stroke="#979ea8" stroke-width="2" stroke-linecap="round" fill="none"/></g><path d="M840-236.7a6 6 0 0 1 6-6h68a6 6 0 0 1 6 6v42.63a6 6 0 0 1-6 6h-68a6 6 0 0 1-6-6z" stroke="#282c33" stroke-width="2" fill="#edf5ff"/><path d="M841-229.85h78" stroke="#82755b" stroke-width="2" stroke-linecap="round" fill="none"/><g><path d="M856.8-241.7v52.63" stroke="#979ea8" stroke-width="2" stroke-linecap="round" fill="none"/></g><g><path d="M888.8-241.7v52.63" stroke="#979ea8" stroke-width="2" stroke-linecap="round" fill="none"/></g><path d="M840-474a6 6 0 0 1 6-6h68a6 6 0 0 1 6 6v42.63a6 6 0 0 1-6 6h-68a6 6 0 0 1-6-6z" stroke="#282c33" stroke-width="2" fill="#fff0f0"/><path d="M841-469.9h78" stroke="#82755b" stroke-width="2" stroke-linecap="round" fill="none"/><g><path d="M856.8-479v52.63" stroke="#979ea8" stroke-width="2" stroke-linecap="round" fill="none"/></g><g><path d="M888.8-479v52.63" stroke="#979ea8" stroke-width="2" stroke-linecap="round" fill="none"/></g><path d="M491.1-215.38h5.03m6.73 0h10.1m6.73 0h10.08m6.73 0h10.1m6.73 0h5.05" stroke="#3a414a" stroke-width="3" fill="none"/><path d="M491.13-213.9h-1.54v-2.96h1.53z" stroke="#3a414a" stroke-width=".05" fill="#3a414a"/><path d="M574.15-215.38l-14.27 4.63v-9.27z" stroke="#3a414a" stroke-width="3" fill="#3a414a"/><path d="M490.3-434.2h4.1m5.44 0H508m5.45 0h8.17m5.45 0h8.16m5.45 0h8.17m5.45 0h4.08" stroke="#3a414a" stroke-width="3" fill="none"/><path d="M490.35-432.72h-1.54v-2.95h1.55z" stroke="#3a414a" stroke-width=".05" fill="#3a414a"/><path d="M574.15-434.2l-14.27 4.64v-9.27z" stroke="#3a414a" stroke-width="3" fill="#3a414a"/><path d="M490.3-362.08h4.1m5.44 0H508m5.45 0h8.17m5.45 0h8.16m5.45 0h8.17m5.45 0h4.08" stroke="#3a414a" stroke-width="3" fill="none"/><path d="M490.35-360.6h-1.54v-2.95h1.55z" stroke="#3a414a" stroke-width=".05" fill="#3a414a"/><path d="M574.15-362.08l-14.27 4.64v-9.27z" stroke="#3a414a" stroke-width="3" fill="#3a414a"/><path d="M890-582.26v4.84m0 6.45v9.67m0 6.46v9.67m0 6.45v9.68m0 6.45v9.7m0 6.44v4.84" stroke="#3a414a" stroke-width="3" fill="none"/><path d="M891.48-582.23h-2.96v-1.53h2.96z" stroke="#3a414a" stroke-width=".05" fill="#3a414a"/><path d="M890-485.85l-4.63-14.27h9.26z" stroke="#3a414a" stroke-width="3" fill="#3a414a"/><path d="M1062.5-380.73h-4.17m-5.56 0h-8.35m-5.56 0h-8.34m-5.56 0h-8.35m-5.55 0h-8.34m-5.55 0h-4.25l-.07.03-.07.02-.06.04-.06.05-.05.07-.05.06-.03.07v.07l-.02.08v.07l-.02.07-.03.06-.04.07-.04.05-.06.05-.06.04-.07.03-.07.02H987m-6.74 0h-10.08m-6.72 0h-10.08m-6.72 0h-5.04" stroke="#3a414a" stroke-width="3" fill="none"/><path d="M1064-379.25h-1.54v-2.95h1.54z" stroke="#3a414a" stroke-width=".05" fill="#3a414a"/><path d="M925.85-379.78l14.27-4.63v9.26z" stroke="#3a414a" stroke-width="3" fill="#3a414a"/><path d="M521.7-712.83v4.65m0 6.2v4.65l-.08.94-.22.92-.36.87-.5.8-.6.7-.72.62-.8.5-.87.36-.92.22-.94.07h-4.98m-6.62 0h-9.94m-6.63 0h-9.93m-6.63 0H466l-.94.07-.9.22-.88.36-.8.5-.72.6-.6.72-.5.8-.37.88-.23.9-.07.95v4.67m0 6.22v9.33m0 6.2v9.35m0 6.22v9.33m0 6.22v9.34m0 6.22v9.33m0 6.24v9.33m0 6.22v9.32m0 6.23v9.33m0 6.22v4.67l.07.94.22.92.35.87.5.8.6.7.72.62.8.5.88.35.9.22.95.07h5.9m7.87 0h5.9l.94.07.92.22.87.36.8.5.7.6.62.72.5.8.36.87.22.93.07.94v4.75m0 6.35v9.5m0 6.35v4.76" stroke="#3a414a" stroke-width="3" fill="none"/><path d="M523.17-712.8h-2.95v-1.53h2.95z" stroke="#3a414a" stroke-width=".05" fill="#3a414a"/><path d="M491.67-485.85l-4.63-14.27h9.26z" stroke="#3a414a" stroke-width="3" fill="#3a414a"/><path d="M1062.5-229.85h-4.23m-5.64 0h-8.47m-5.64 0h-8.47m-5.64 0h-8.46m-5.64 0h-8.46m-5.65 0H986.8m-6.86 0h-10.28m-6.86 0h-10.28m-6.86 0h-5.14" stroke="#3a414a" stroke-width="3" fill="none"/><path d="M1064-228.37h-1.54v-2.95h1.54z" stroke="#3a414a" stroke-width=".05" fill="#3a414a"/><path d="M924.78-229.85l14.26-4.63v9.27z" stroke="#3a414a" stroke-width="3" fill="#3a414a"/><defs><path fill="#3a414a" d="M127-220V0H93v-220H8v-28h204v28h-85" id="S"/><path fill="#3a414a" d="M141-36C126-15 110 5 73 4 37 3 15-17 15-53c-1-64 63-63 125-63 3-35-9-54-41-54-24 1-41 7-42 31l-33-3c5-37 33-52 76-52 45 0 72 20 72 64v82c-1 20 7 32 28 27v20c-31 9-61-2-59-35zM48-53c0 20 12 33 32 33 41-3 63-29 60-74-43 2-92-5-92 41" id="T"/><path fill="#3a414a" d="M114-163C36-179 61-72 57 0H25l-1-190h30c1 12-1 29 2 39 6-27 23-49 58-41v29" id="U"/><path fill="#3a414a" d="M177-190C167-65 218 103 67 71c-23-6-38-20-44-43l32-5c15 47 100 32 89-28v-30C133-14 115 1 83 1 29 1 15-40 15-95c0-56 16-97 71-98 29-1 48 16 59 35 1-10 0-23 2-32h30zM94-22c36 0 50-32 50-73 0-42-14-75-50-75-39 0-46 34-46 75s6 73 46 73" id="V"/><path fill="#3a414a" d="M100-194c63 0 86 42 84 106H49c0 40 14 67 53 68 26 1 43-12 49-29l28 8c-11 28-37 45-77 45C44 4 14-33 15-96c1-61 26-98 85-98zm52 81c6-60-76-77-97-28-3 7-6 17-6 28h103" id="W"/><path fill="#3a414a" d="M59-47c-2 24 18 29 38 22v24C64 9 27 4 27-40v-127H5v-23h24l9-43h21v43h35v23H59v120" id="X"/><g id="a"><use transform="matrix(0.06172839506172839,0,0,0.06172839506172839,0,0)" xlink:href="#S"/><use transform="matrix(0.06172839506172839,0,0,0.06172839506172839,11.049382716049381,0)" xlink:href="#T"/><use transform="matrix(0.06172839506172839,0,0,0.06172839506172839,23.39506172839506,0)" xlink:href="#U"/><use transform="matrix(0.06172839506172839,0,0,0.06172839506172839,30.74074074074074,0)" xlink:href="#V"/><use transform="matrix(0.06172839506172839,0,0,0.06172839506172839,43.08641975308642,0)" xlink:href="#W"/><use transform="matrix(0.06172839506172839,0,0,0.06172839506172839,55.432098765432094,0)" xlink:href="#X"/></g><path fill="#3a414a" d="M30-248c118-7 216 8 213 122C240-48 200 0 122 0H30v-248zM63-27c89 8 146-16 146-99s-60-101-146-95v194" id="Y"/><path fill="#3a414a" d="M100-194c62-1 85 37 85 99 1 63-27 99-86 99S16-35 15-95c0-66 28-99 85-99zM99-20c44 1 53-31 53-75 0-43-8-75-51-75s-53 32-53 75 10 74 51 75" id="Z"/><path fill="#3a414a" d="M210-169c-67 3-38 105-44 169h-31v-121c0-29-5-50-35-48C34-165 62-65 56 0H25l-1-190h30c1 10-1 24 2 32 10-44 99-50 107 0 11-21 27-35 58-36 85-2 47 119 55 194h-31v-121c0-29-5-49-35-48" id="aa"/><path fill="#3a414a" d="M24-231v-30h32v30H24zM24 0v-190h32V0H24" id="ab"/><path fill="#3a414a" d="M117-194c89-4 53 116 60 194h-32v-121c0-31-8-49-39-48C34-167 62-67 57 0H25l-1-190h30c1 10-1 24 2 32 11-22 29-35 61-36" id="ac"/><g id="b"><use transform="matrix(0.06172839506172839,0,0,0.06172839506172839,0,0)" xlink:href="#Y"/><use transform="matrix(0.06172839506172839,0,0,0.06172839506172839,15.987654320987653,0)" xlink:href="#Z"/><use transform="matrix(0.06172839506172839,0,0,0.06172839506172839,28.333333333333332,0)" xlink:href="#aa"/><use transform="matrix(0.06172839506172839,0,0,0.06172839506172839,46.79012345679012,0)" xlink:href="#T"/><use transform="matrix(0.06172839506172839,0,0,0.06172839506172839,59.1358024691358,0)" xlink:href="#ab"/><use transform="matrix(0.06172839506172839,0,0,0.06172839506172839,64.01234567901234,0)" xlink:href="#ac"/></g><path fill="#3a414a" d="M185-189c-5-48-123-54-124 2 14 75 158 14 163 119 3 78-121 87-175 55-17-10-28-26-33-46l33-7c5 56 141 63 141-1 0-78-155-14-162-118-5-82 145-84 179-34 5 7 8 16 11 25" id="ad"/><path fill="#3a414a" d="M84 4C-5 8 30-112 23-190h32v120c0 31 7 50 39 49 72-2 45-101 50-169h31l1 190h-30c-1-10 1-25-2-33-11 22-28 36-60 37" id="ae"/><path fill="#3a414a" d="M96-169c-40 0-48 33-48 73s9 75 48 75c24 0 41-14 43-38l32 2c-6 37-31 61-74 61-59 0-76-41-82-99-10-93 101-131 147-64 4 7 5 14 7 22l-32 3c-4-21-16-35-41-35" id="af"/><g id="c"><use transform="matrix(0.06172839506172839,0,0,0.06172839506172839,0,0)" xlink:href="#ad"/><use transform="matrix(0.06172839506172839,0,0,0.06172839506172839,14.814814814814813,0)" xlink:href="#Z"/><use transform="matrix(0.06172839506172839,0,0,0.06172839506172839,27.160493827160494,0)" xlink:href="#ae"/><use transform="matrix(0.06172839506172839,0,0,0.06172839506172839,39.50617283950617,0)" xlink:href="#U"/><use transform="matrix(0.06172839506172839,0,0,0.06172839506172839,46.85185185185185,0)" xlink:href="#af"/><use transform="matrix(0.06172839506172839,0,0,0.06172839506172839,57.96296296296296,0)" xlink:href="#W"/></g><path fill="#3a414a" d="M212-179c-10-28-35-45-73-45-59 0-87 40-87 99 0 60 29 101 89 101 43 0 62-24 78-52l27 14C228-24 195 4 139 4 59 4 22-46 18-125c-6-104 99-153 187-111 19 9 31 26 39 46" id="ag"/><g id="d"><use transform="matrix(0.06172839506172839,0,0,0.06172839506172839,0,0)" xlink:href="#ag"/><use transform="matrix(0.06172839506172839,0,0,0.06172839506172839,15.987654320987653,0)" xlink:href="#Z"/><use transform="matrix(0.06172839506172839,0,0,0.06172839506172839,28.333333333333332,0)" xlink:href="#aa"/><use transform="matrix(0.06172839506172839,0,0,0.06172839506172839,46.79012345679012,0)" xlink:href="#aa"/><use transform="matrix(0.06172839506172839,0,0,0.06172839506172839,65.24691358024691,0)" xlink:href="#Z"/><use transform="matrix(0.06172839506172839,0,0,0.06172839506172839,77.5925925925926,0)" xlink:href="#ac"/></g><path fill="#3a414a" d="M232-93c-1 65-40 97-104 97C67 4 28-28 28-90v-158h33c8 89-33 224 67 224 102 0 64-133 71-224h33v155" id="ah"/><path fill="#3a414a" d="M135-143c-3-34-86-38-87 0 15 53 115 12 119 90S17 21 10-45l28-5c4 36 97 45 98 0-10-56-113-15-118-90-4-57 82-63 122-42 12 7 21 19 24 35" id="ai"/><g id="e"><use transform="matrix(0.06172839506172839,0,0,0.06172839506172839,0,0)" xlink:href="#ah"/><use transform="matrix(0.06172839506172839,0,0,0.06172839506172839,15.987654320987653,0)" xlink:href="#ai"/><use transform="matrix(0.06172839506172839,0,0,0.06172839506172839,27.098765432098766,0)" xlink:href="#W"/><use transform="matrix(0.06172839506172839,0,0,0.06172839506172839,39.44444444444444,0)" xlink:href="#U"/><use transform="matrix(0.06172839506172839,0,0,0.06172839506172839,46.79012345679012,0)" xlink:href="#ai"/></g><path fill="#3a414a" d="M18-27v-27l151-64-151-65v-27l175 74v36" id="aj"/><path fill="#3a414a" d="M18-150v-26h174v26H18zm0 90v-26h174v26H18" id="ak"/><g id="f"><use transform="matrix(0.06172839506172839,0,0,0.06172839506172839,0,0)" xlink:href="#aj"/><use transform="matrix(0.06172839506172839,0,0,0.06172839506172839,12.962962962962962,0)" xlink:href="#ak"/></g><path fill="#3a414a" d="M126-127c33 6 58 20 58 59 0 88-139 92-164 29-3-8-5-16-6-25l32-3c6 27 21 44 54 44 32 0 52-15 52-46 0-38-36-46-79-43v-28c39 1 72-4 72-42 0-27-17-43-46-43-28 0-47 15-49 41l-32-3c6-42 35-63 81-64 48-1 79 21 79 65 0 36-21 52-52 59" id="al"/><use transform="matrix(0.06172839506172839,0,0,0.06172839506172839,0,0)" xlink:href="#al" id="g"/><path fill="#3a414a" d="M190 0L58-211 59 0H30v-248h39L202-35l-2-213h31V0h-41" id="am"/><path fill="#3a414a" d="M16-82v-28h88v28H16" id="an"/><path fill="#3a414a" d="M30 0v-248h187v28H63v79h144v27H63v87h162V0H30" id="ao"/><path fill="#3a414a" d="M115-194c55 1 70 41 70 98S169 2 115 4C84 4 66-9 55-30l1 105H24l-1-265h31l2 30c10-21 28-34 59-34zm-8 174c40 0 45-34 45-75s-6-73-45-74c-42 0-51 32-51 76 0 43 10 73 51 73" id="ap"/><path fill="#3a414a" d="M179-190L93 31C79 59 56 82 12 73V49c39 6 53-20 64-50L1-190h34L92-34l54-156h33" id="aq"/><g id="h"><use transform="matrix(0.06172839506172839,0,0,0.06172839506172839,0,0)" xlink:href="#am"/><use transform="matrix(0.06172839506172839,0,0,0.06172839506172839,15.987654320987653,0)" xlink:href="#Z"/><use transform="matrix(0.06172839506172839,0,0,0.06172839506172839,28.333333333333332,0)" xlink:href="#ac"/><use transform="matrix(0.06172839506172839,0,0,0.06172839506172839,40.67901234567901,0)" xlink:href="#an"/><use transform="matrix(0.06172839506172839,0,0,0.06172839506172839,48.02469135802469,0)" xlink:href="#ao"/><use transform="matrix(0.06172839506172839,0,0,0.06172839506172839,62.839506172839506,0)" xlink:href="#aa"/><use transform="matrix(0.06172839506172839,0,0,0.06172839506172839,81.29629629629629,0)" xlink:href="#ap"/><use transform="matrix(0.06172839506172839,0,0,0.06172839506172839,93.64197530864197,0)" xlink:href="#X"/><use transform="matrix(0.06172839506172839,0,0,0.06172839506172839,99.81481481481481,0)" xlink:href="#aq"/></g><path fill="#3a414a" d="M233-177c-1 41-23 64-60 70L243 0h-38l-65-103H63V0H30v-248c88 3 205-21 203 71zM63-129c60-2 137 13 137-47 0-61-80-42-137-45v92" id="ar"/><path fill="#3a414a" d="M108 0H70L1-190h34L89-25l56-165h34" id="as"/><path fill="#3a414a" d="M206 0h-36l-40-164L89 0H53L-1-190h32L70-26l43-164h34l41 164 42-164h31" id="at"/><g id="i"><use transform="matrix(0.06172839506172839,0,0,0.06172839506172839,0,0)" xlink:href="#ar"/><use transform="matrix(0.06172839506172839,0,0,0.06172839506172839,15.987654320987653,0)" xlink:href="#W"/><use transform="matrix(0.06172839506172839,0,0,0.06172839506172839,28.333333333333332,0)" xlink:href="#as"/><use transform="matrix(0.06172839506172839,0,0,0.06172839506172839,39.44444444444444,0)" xlink:href="#ab"/><use transform="matrix(0.06172839506172839,0,0,0.06172839506172839,44.32098765432099,0)" xlink:href="#W"/><use transform="matrix(0.06172839506172839,0,0,0.06172839506172839,56.666666666666664,0)" xlink:href="#at"/><use transform="matrix(0.06172839506172839,0,0,0.06172839506172839,72.65432098765432,0)" xlink:href="#ai"/></g><g id="j"><use transform="matrix(0.06172839506172839,0,0,0.06172839506172839,0,0)" xlink:href="#ah"/><use transform="matrix(0.06172839506172839,0,0,0.06172839506172839,15.987654320987653,0)" xlink:href="#ai"/><use transform="matrix(0.06172839506172839,0,0,0.06172839506172839,27.098765432098766,0)" xlink:href="#W"/><use transform="matrix(0.06172839506172839,0,0,0.06172839506172839,39.44444444444444,0)" xlink:href="#U"/></g><g id="k"><use transform="matrix(0.06172839506172839,0,0,0.06172839506172839,0,0)" xlink:href="#ar"/><use transform="matrix(0.06172839506172839,0,0,0.06172839506172839,15.987654320987653,0)" xlink:href="#W"/><use transform="matrix(0.06172839506172839,0,0,0.06172839506172839,28.333333333333332,0)" xlink:href="#as"/><use transform="matrix(0.06172839506172839,0,0,0.06172839506172839,39.44444444444444,0)" xlink:href="#ab"/><use transform="matrix(0.06172839506172839,0,0,0.06172839506172839,44.32098765432099,0)" xlink:href="#W"/><use transform="matrix(0.06172839506172839,0,0,0.06172839506172839,56.666666666666664,0)" xlink:href="#at"/><use transform="matrix(0.06172839506172839,0,0,0.06172839506172839,72.65432098765432,0)" xlink:href="#ai"/></g><path fill="#3a414a" d="M85-194c31 0 48 13 60 33l-1-100h32l1 261h-30c-2-10 0-23-3-31C134-8 116 4 85 4 32 4 16-35 15-94c0-66 23-100 70-100zm9 24c-40 0-46 34-46 75 0 40 6 74 45 74 42 0 51-32 51-76 0-42-9-74-50-73" id="au"/><g id="l"><use transform="matrix(0.06172839506172839,0,0,0.06172839506172839,0,0)" xlink:href="#T"/><use transform="matrix(0.06172839506172839,0,0,0.06172839506172839,12.345679012345679,0)" xlink:href="#ac"/><use transform="matrix(0.06172839506172839,0,0,0.06172839506172839,24.691358024691358,0)" xlink:href="#au"/></g><g id="m"><use transform="matrix(0.06172839506172839,0,0,0.06172839506172839,0,0)" xlink:href="#ar"/><use transform="matrix(0.06172839506172839,0,0,0.06172839506172839,15.987654320987653,0)" xlink:href="#T"/><use transform="matrix(0.06172839506172839,0,0,0.06172839506172839,28.333333333333332,0)" xlink:href="#X"/><use transform="matrix(0.06172839506172839,0,0,0.06172839506172839,34.50617283950617,0)" xlink:href="#ab"/><use transform="matrix(0.06172839506172839,0,0,0.06172839506172839,39.382716049382715,0)" xlink:href="#ac"/><use transform="matrix(0.06172839506172839,0,0,0.06172839506172839,51.72839506172839,0)" xlink:href="#V"/><use transform="matrix(0.06172839506172839,0,0,0.06172839506172839,64.07407407407408,0)" xlink:href="#ai"/></g><g id="n"><use transform="matrix(0.06172839506172839,0,0,0.06172839506172839,0,0)" xlink:href="#Y"/><use transform="matrix(0.06172839506172839,0,0,0.06172839506172839,15.987654320987653,0)" xlink:href="#T"/><use transform="matrix(0.06172839506172839,0,0,0.06172839506172839,28.333333333333332,0)" xlink:href="#X"/><use transform="matrix(0.06172839506172839,0,0,0.06172839506172839,34.50617283950617,0)" xlink:href="#T"/></g><path fill="#3a414a" d="M33 0v-248h34V0H33" id="av"/><g id="o"><use transform="matrix(0.06172839506172839,0,0,0.06172839506172839,0,0)" xlink:href="#av"/><use transform="matrix(0.06172839506172839,0,0,0.06172839506172839,6.172839506172839,0)" xlink:href="#X"/><use transform="matrix(0.06172839506172839,0,0,0.06172839506172839,12.345679012345679,0)" xlink:href="#W"/><use transform="matrix(0.06172839506172839,0,0,0.06172839506172839,24.691358024691358,0)" xlink:href="#aa"/></g><g id="p"><use transform="matrix(0.06172839506172839,0,0,0.06172839506172839,0,0)" xlink:href="#Y"/><use transform="matrix(0.06172839506172839,0,0,0.06172839506172839,15.987654320987653,0)" xlink:href="#W"/><use transform="matrix(0.06172839506172839,0,0,0.06172839506172839,28.333333333333332,0)" xlink:href="#ai"/><use transform="matrix(0.06172839506172839,0,0,0.06172839506172839,39.44444444444444,0)" xlink:href="#af"/><use transform="matrix(0.06172839506172839,0,0,0.06172839506172839,50.55555555555556,0)" xlink:href="#U"/><use transform="matrix(0.06172839506172839,0,0,0.06172839506172839,57.901234567901234,0)" xlink:href="#ab"/><use transform="matrix(0.06172839506172839,0,0,0.06172839506172839,62.77777777777778,0)" xlink:href="#ap"/><use transform="matrix(0.06172839506172839,0,0,0.06172839506172839,75.12345679012346,0)" xlink:href="#X"/><use transform="matrix(0.06172839506172839,0,0,0.06172839506172839,81.29629629629629,0)" xlink:href="#ab"/><use transform="matrix(0.06172839506172839,0,0,0.06172839506172839,86.17283950617283,0)" xlink:href="#Z"/><use transform="matrix(0.06172839506172839,0,0,0.06172839506172839,98.51851851851852,0)" xlink:href="#ac"/></g><path fill="#3a414a" d="M30 0v-248h33v221h125V0H30" id="aw"/><g id="q"><use transform="matrix(0.06172839506172839,0,0,0.06172839506172839,0,0)" xlink:href="#aw"/><use transform="matrix(0.06172839506172839,0,0,0.06172839506172839,12.345679012345679,0)" xlink:href="#Z"/><use transform="matrix(0.06172839506172839,0,0,0.06172839506172839,24.691358024691358,0)" xlink:href="#T"/><use transform="matrix(0.06172839506172839,0,0,0.06172839506172839,37.03703703703704,0)" xlink:href="#au"/></g><g id="r"><use transform="matrix(0.06172839506172839,0,0,0.06172839506172839,0,0)" xlink:href="#T"/><use transform="matrix(0.06172839506172839,0,0,0.06172839506172839,12.345679012345679,0)" xlink:href="#ac"/><use transform="matrix(0.06172839506172839,0,0,0.06172839506172839,24.691358024691358,0)" xlink:href="#au"/></g><path fill="#3a414a" d="M63-220v92h138v28H63V0H30v-248h175v28H63" id="ax"/><path fill="#3a414a" d="M24 0v-261h32V0H24" id="ay"/><g id="s"><use transform="matrix(0.06172839506172839,0,0,0.06172839506172839,0,0)" xlink:href="#ax"/><use transform="matrix(0.06172839506172839,0,0,0.06172839506172839,13.518518518518517,0)" xlink:href="#ab"/><use transform="matrix(0.06172839506172839,0,0,0.06172839506172839,18.39506172839506,0)" xlink:href="#ay"/><use transform="matrix(0.06172839506172839,0,0,0.06172839506172839,23.2716049382716,0)" xlink:href="#X"/><use transform="matrix(0.06172839506172839,0,0,0.06172839506172839,29.44444444444444,0)" xlink:href="#W"/><use transform="matrix(0.06172839506172839,0,0,0.06172839506172839,41.79012345679012,0)" xlink:href="#U"/></g><path fill="#3a414a" d="M30-248c87 1 191-15 191 75 0 78-77 80-158 76V0H30v-248zm33 125c57 0 124 11 124-50 0-59-68-47-124-48v98" id="az"/><path fill="#3a414a" d="M101-234c-31-9-42 10-38 44h38v23H63V0H32v-167H5v-23h27c-7-52 17-82 69-68v24" id="aA"/><g id="t"><use transform="matrix(0.06172839506172839,0,0,0.06172839506172839,0,0)" xlink:href="#az"/><use transform="matrix(0.06172839506172839,0,0,0.06172839506172839,14.814814814814813,0)" xlink:href="#U"/><use transform="matrix(0.06172839506172839,0,0,0.06172839506172839,22.160493827160494,0)" xlink:href="#Z"/><use transform="matrix(0.06172839506172839,0,0,0.06172839506172839,34.50617283950617,0)" xlink:href="#aA"/><use transform="matrix(0.06172839506172839,0,0,0.06172839506172839,40.67901234567901,0)" xlink:href="#ab"/><use transform="matrix(0.06172839506172839,0,0,0.06172839506172839,45.55555555555556,0)" xlink:href="#ay"/><use transform="matrix(0.06172839506172839,0,0,0.06172839506172839,50.4320987654321,0)" xlink:href="#W"/></g><path fill="#3a414a" d="M143 4C61 4 22-44 18-125c-5-107 100-154 193-111 17 8 29 25 37 43l-32 9c-13-25-37-40-76-40-61 0-88 39-88 99 0 61 29 100 91 101 35 0 62-11 79-27v-45h-74v-28h105v86C228-13 192 4 143 4" id="aB"/><g id="u"><use transform="matrix(0.06172839506172839,0,0,0.06172839506172839,0,0)" xlink:href="#aB"/><use transform="matrix(0.06172839506172839,0,0,0.06172839506172839,17.28395061728395,0)" xlink:href="#W"/><use transform="matrix(0.06172839506172839,0,0,0.06172839506172839,29.629629629629626,0)" xlink:href="#ac"/><use transform="matrix(0.06172839506172839,0,0,0.06172839506172839,41.9753086419753,0)" xlink:href="#W"/><use transform="matrix(0.06172839506172839,0,0,0.06172839506172839,54.32098765432098,0)" xlink:href="#U"/><use transform="matrix(0.06172839506172839,0,0,0.06172839506172839,61.66666666666666,0)" xlink:href="#T"/><use transform="matrix(0.06172839506172839,0,0,0.06172839506172839,74.01234567901234,0)" xlink:href="#X"/><use transform="matrix(0.06172839506172839,0,0,0.06172839506172839,80.18518518518518,0)" xlink:href="#ab"/><use transform="matrix(0.06172839506172839,0,0,0.06172839506172839,85.06172839506172,0)" xlink:href="#Z"/><use transform="matrix(0.06172839506172839,0,0,0.06172839506172839,97.4074074074074,0)" xlink:href="#ac"/></g><path fill="#3a414a" d="M205 0l-28-72H64L36 0H1l101-248h38L239 0h-34zm-38-99l-47-123c-12 45-31 82-46 123h93" id="aC"/><use transform="matrix(0.06172839506172839,0,0,0.06172839506172839,0,0)" xlink:href="#aC" id="v"/><path fill="#3a414a" d="M33-154v-36h34v36H33zM33 0v-36h34V0H33" id="aD"/><use transform="matrix(0.06172839506172839,0,0,0.06172839506172839,0,0)" xlink:href="#aD" id="w"/><path fill="#3a414a" d="M872-915c-35-112-84-223-220-223-91 0-156 41-204 116-89 137-87 550 2 688 51 79 116 122 209 122 150 0 197-126 240-244l273 52C1094-168 961 20 656 20 239 20 80-262 80-681c0-418 154-689 568-689 289 0 425 167 496 389" id="aE"/><path fill="#3a414a" d="M615-1370c385 0 542 273 542 691 0 230-47 404-140 522S790 20 615 20C231 20 72-262 72-679c0-419 158-691 543-691zM797-330c77-133 78-564 0-695-44-73-101-113-182-113s-139 40-183 114c-79 133-78 560 0 694 45 77 102 118 183 118s138-41 182-118" id="aF"/><path fill="#3a414a" d="M865-312c-44-312-23-686-28-1037h257V0H748L364-1010c44 304 24 668 28 1010H135v-1349h337" id="aG"/><path fill="#3a414a" d="M1229 0H935l-92-330H387L295 0H0l443-1349h344zM615-1167c-46 213-110 412-166 615h332c-56-204-119-401-166-615" id="aH"/><path fill="#3a414a" d="M762-1121V0H467v-1121H61v-228h1107v228H762" id="aI"/><g id="x"><use transform="matrix(0.010850694444444444,0,0,0.010850694444444444,0,0)" xlink:href="#aE"/><use transform="matrix(0.010850694444444444,0,0,0.010850694444444444,13.335503472222221,0)" xlink:href="#aF"/><use transform="matrix(0.010850694444444444,0,0,0.010850694444444444,26.671006944444443,0)" xlink:href="#aG"/><use transform="matrix(0.010850694444444444,0,0,0.010850694444444444,40.006510416666664,0)" xlink:href="#aE"/><use transform="matrix(0.010850694444444444,0,0,0.010850694444444444,53.342013888888886,0)" xlink:href="#aH"/><use transform="matrix(0.010850694444444444,0,0,0.010850694444444444,66.67751736111111,0)" xlink:href="#aI"/></g><path fill="#3a414a" d="M87 75C49 33 22-17 22-94c0-76 28-126 65-167h31c-38 41-64 92-64 168S80 34 118 75H87" id="aJ"/><use transform="matrix(0.06172839506172839,0,0,0.06172839506172839,0,0)" xlink:href="#aJ" id="y"/><path fill="#3a414a" d="M33-261c38 41 65 92 65 168S71 34 33 75H2C39 34 66-17 66-93S39-220 2-261h31" id="aK"/><use transform="matrix(0.06172839506172839,0,0,0.06172839506172839,0,0)" xlink:href="#aK" id="z"/><path fill="#3a414a" d="M881 0L558-557 431-415V0H136v-1349h295v599l436-599h343L750-770 1229 0H881" id="aL"/><path fill="#3a414a" d="M1113-274C1038-96 884 20 626 20c-352 0-526-209-526-566 0-358 185-556 530-556 358 0 496 251 499 615H395c5 180 68 319 245 319 102 0 186-45 208-129zM857-663c-6-177-128-307-315-247-94 30-141 121-145 247h460" id="aM"/><path fill="#3a414a" d="M143 212c82 12 185 12 233-31 50-45 83-117 110-192L38-1082h297c100 284 211 557 291 861 72-305 176-578 270-861h294L742 57c-80 192-156 368-417 368-60 0-131-4-182-13V212" id="aN"/><path fill="#3a414a" d="M427-171c3 195 2 397 2 596H148V-846c1-83-4-168-8-236h272c10 49 14 118 15 176h4c59-114 151-197 316-197 291 0 385 259 385 560 0 243-65 433-220 521-50 28-109 42-176 42-162-2-253-78-309-191zm69-661c-91 113-92 463-1 586 46 62 145 101 225 54 96-57 118-191 119-351 0-123-18-215-53-276-46-82-128-115-220-74-25 12-48 33-70 61" id="aO"/><path fill="#3a414a" d="M424-1484c-2 206 5 424-8 618h4c67-145 160-234 348-236 251-3 335 167 336 416V0H824v-621c0-150-23-276-173-270-163 7-227 142-227 312V0H143v-1484h281" id="aP"/><path fill="#3a414a" d="M875-1102c70 0 148 7 206 17v237c-110-17-267-37-359 15-123 69-192 207-192 395V0H250c-10-367 32-789-52-1082h271c19 69 36 149 46 228h4c52-151 151-250 356-248" id="aQ"/><path fill="#3a414a" d="M775-193C708-75 621 20 439 20 226 20 106-93 106-306c0-251 170-341 417-346l223-4c4-143-12-264-148-264-103 0-141 58-150 153l-293-14c37-219 194-321 455-321 263 0 418 130 417 390v392c1 84 5 161 89 160 21 0 42-2 62-6v152c-57 15-108 27-180 26-145 0-202-73-217-205h-6zm-256 17c168 0 234-139 227-325-166 4-347-25-347 173 0 94 33 152 120 152" id="aR"/><path fill="#3a414a" d="M622-916c-112 2-200 14-200 111 0 90 89 101 168 121 234 58 514 77 514 368C1104-4 751 54 434 5 267-21 161-112 121-270l247-37c24 111 113 145 252 141 114-3 226-12 226-124 0-101-103-113-192-134-225-54-490-76-490-351 0-247 201-328 458-328 245 0 413 88 457 292l-249 26c-16-98-92-133-208-131" id="aS"/><g id="A"><use transform="matrix(0.010850694444444444,0,0,0.010850694444444444,0,0)" xlink:href="#aL"/><use transform="matrix(0.010850694444444444,0,0,0.010850694444444444,13.335503472222221,0)" xlink:href="#aM"/><use transform="matrix(0.010850694444444444,0,0,0.010850694444444444,26.671006944444443,0)" xlink:href="#aN"/><use transform="matrix(0.010850694444444444,0,0,0.010850694444444444,40.006510416666664,0)" xlink:href="#aO"/><use transform="matrix(0.010850694444444444,0,0,0.010850694444444444,53.342013888888886,0)" xlink:href="#aP"/><use transform="matrix(0.010850694444444444,0,0,0.010850694444444444,66.67751736111111,0)" xlink:href="#aQ"/><use transform="matrix(0.010850694444444444,0,0,0.010850694444444444,80.01302083333334,0)" xlink:href="#aR"/><use transform="matrix(0.010850694444444444,0,0,0.010850694444444444,93.34852430555557,0)" xlink:href="#aS"/><use transform="matrix(0.010850694444444444,0,0,0.010850694444444444,106.6840277777778,0)" xlink:href="#aM"/></g><path fill="#3a414a" d="M650-216c90 0 157-35 208-74v-235H584v-218h544v558C1004-84 858 20 635 20 235 20 80-276 80-681c0-416 146-689 558-689 277 0 398 160 462 375l-274 54c-31-108-73-197-185-197-231 0-262 217-262 457 0 149 22 263 67 344s113 121 204 121" id="aT"/><path fill="#3a414a" d="M768-1103c247 0 336 167 336 416V0H824v-619c-3-164-24-273-171-273-164 0-229 142-229 312V0H143c-4-359 9-736-8-1082h268c7 63 12 146 13 215h4c67-145 160-236 348-236" id="aU"/><path fill="#3a414a" d="M711 13c-250 0-386-99-385-349l2-556H161v-190h181l88-282h176v282h385v190H606v530c-10 130 45 186 174 184 91-2 176-11 255-27v186C933-1 833 13 711 13" id="aV"/><path fill="#3a414a" d="M794-190h353V0H118v-190h395v-702H223v-190h571v892zM513-1277v-207h281v207H513" id="aW"/><path fill="#3a414a" d="M616-1102c361 0 521 202 521 560 0 354-171 562-527 562C259 20 92-192 92-542c0-351 169-560 524-560zm-9 930c200-2 236-165 236-370 0-199-27-367-223-367-195 0-233 146-233 367 0 129 18 223 55 282s92 88 165 88" id="aX"/><g id="B"><use transform="matrix(0.010850694444444444,0,0,0.010850694444444444,0,0)" xlink:href="#aT"/><use transform="matrix(0.010850694444444444,0,0,0.010850694444444444,13.335503472222221,0)" xlink:href="#aM"/><use transform="matrix(0.010850694444444444,0,0,0.010850694444444444,26.671006944444443,0)" xlink:href="#aU"/><use transform="matrix(0.010850694444444444,0,0,0.010850694444444444,40.006510416666664,0)" xlink:href="#aM"/><use transform="matrix(0.010850694444444444,0,0,0.010850694444444444,53.342013888888886,0)" xlink:href="#aQ"/><use transform="matrix(0.010850694444444444,0,0,0.010850694444444444,66.67751736111111,0)" xlink:href="#aR"/><use transform="matrix(0.010850694444444444,0,0,0.010850694444444444,80.01302083333334,0)" xlink:href="#aV"/><use transform="matrix(0.010850694444444444,0,0,0.010850694444444444,93.34852430555557,0)" xlink:href="#aW"/><use transform="matrix(0.010850694444444444,0,0,0.010850694444444444,106.6840277777778,0)" xlink:href="#aX"/><use transform="matrix(0.010850694444444444,0,0,0.010850694444444444,120.01953125000003,0)" xlink:href="#aU"/></g><path fill="#3a414a" d="M471 20c-247 0-336-169-336-415v-687h281v607c4 148 31 285 172 285 152 0 207-150 207-312v-580h281c4 359-9 736 8 1082H816c-7-63-11-146-12-215h-5C736-76 644 20 471 20" id="aY"/><path fill="#3a414a" d="M1108-33c-3 314-178 467-492 467-243 0-400-94-447-291l281-33c17 79 82 141 174 141 176 0 212-155 205-347-2-40 5-80 0-115C773-85 665-12 501-12c-288 0-377-242-377-538 0-242 65-426 223-510 50-26 108-39 175-39 160 0 253 78 307 191h5c1-58 5-125 14-174h266c-12 335-3 703-6 1049zM811-384c25-82 27-259 1-342-30-99-77-180-190-180-172 0-205 171-205 356 0 116 18 202 54 258 48 76 129 107 221 70 62-25 96-86 119-162" id="aZ"/><g id="C"><use transform="matrix(0.010850694444444444,0,0,0.010850694444444444,0,0)" xlink:href="#aY"/><use transform="matrix(0.010850694444444444,0,0,0.010850694444444444,13.335503472222221,0)" xlink:href="#aS"/><use transform="matrix(0.010850694444444444,0,0,0.010850694444444444,26.671006944444443,0)" xlink:href="#aW"/><use transform="matrix(0.010850694444444444,0,0,0.010850694444444444,40.006510416666664,0)" xlink:href="#aU"/><use transform="matrix(0.010850694444444444,0,0,0.010850694444444444,53.342013888888886,0)" xlink:href="#aZ"/></g><path fill="#374151" d="M762-1121V0H467v-1121H61v-228h1107v228H762" id="ba"/><path fill="#374151" d="M426-814c58-49 145-93 255-90 282 8 442 169 442 450 0 312-203 474-522 474-288 0-453-130-497-372l281-23c24 104 89 172 219 172 153 0 230-91 230-245 0-144-78-226-224-229-94-2-148 42-191 91H145l49-763h847v209H449" id="bb"/><path fill="#374151" d="M324-409v-244h580v244H324" id="bc"/><path fill="#374151" d="M622-916c-112 2-200 14-200 111 0 90 89 101 168 121 234 58 514 77 514 368C1104-4 751 54 434 5 267-21 161-112 121-270l247-37c24 111 113 145 252 141 114-3 226-12 226-124 0-101-103-113-192-134-225-54-490-76-490-351 0-247 201-328 458-328 245 0 413 88 457 292l-249 26c-16-98-92-133-208-131" id="bd"/><path fill="#374151" d="M934-1102c199 0 220 177 220 381V0H926c-2-260 10-533-4-785-4-72-14-138-83-138-34 0-61 27-81 81s-29 134-29 241V0H501c-2-260 9-533-5-785-4-72-13-138-82-138-46 0-65 47-80 93-21 67-30 155-30 248V0H75c-3-360 6-732-6-1082h209c6 50 3 123 8 175 36-100 83-195 216-195 135 0 166 79 196 196 42-105 93-196 236-196" id="be"/><path fill="#374151" d="M775-193C708-75 621 20 439 20 226 20 106-93 106-306c0-251 170-341 417-346l223-4c4-143-12-264-148-264-103 0-141 58-150 153l-293-14c37-219 194-321 455-321 263 0 418 130 417 390v392c1 84 5 161 89 160 21 0 42-2 62-6v152c-57 15-108 27-180 26-145 0-202-73-217-205h-6zm-256 17c168 0 234-139 227-325-166 4-347-25-347 173 0 94 33 152 120 152" id="bf"/><path fill="#374151" d="M794-190h353V0H118v-190h395v-1104H223v-190h571v1294" id="bg"/><path fill="#374151" d="M794-190h353V0H118v-190h395v-702H223v-190h571v892zM513-1277v-207h281v207H513" id="bh"/><path fill="#374151" d="M768-1103c247 0 336 167 336 416V0H824v-619c-3-164-24-273-171-273-164 0-229 142-229 312V0H143c-4-359 9-736-8-1082h268c7 63 12 146 13 215h4c67-145 160-236 348-236" id="bi"/><path fill="#374151" d="M427-171c3 195 2 397 2 596H148V-846c1-83-4-168-8-236h272c10 49 14 118 15 176h4c59-114 151-197 316-197 291 0 385 259 385 560 0 243-65 433-220 521-50 28-109 42-176 42-162-2-253-78-309-191zm69-661c-91 113-92 463-1 586 46 62 145 101 225 54 96-57 118-191 119-351 0-123-18-215-53-276-46-82-128-115-220-74-25 12-48 33-70 61" id="bj"/><path fill="#374151" d="M1113-274C1038-96 884 20 626 20c-352 0-526-209-526-566 0-358 185-556 530-556 358 0 496 251 499 615H395c5 180 68 319 245 319 102 0 186-45 208-129zM857-663c-6-177-128-307-315-247-94 30-141 121-145 247h460" id="bk"/><path fill="#374151" d="M1109-360C1066-122 902 20 624 20c-347 0-514-209-514-555 0-353 168-567 518-567 270 0 425 136 473 361l-283 14c-16-106-75-183-196-182-75 0-130 31-165 93s-52 152-52 270c0 249 74 374 221 374 120 0 188-82 201-201" id="bl"/><g id="D"><use transform="matrix(0.013020833333333334,0,0,0.013020833333333334,0,0)" xlink:href="#ba"/><use transform="matrix(0.013020833333333334,0,0,0.013020833333333334,16.002604166666668,0)" xlink:href="#bb"/><use transform="matrix(0.013020833333333334,0,0,0.013020833333333334,32.005208333333336,0)" xlink:href="#bc"/><use transform="matrix(0.013020833333333334,0,0,0.013020833333333334,48.0078125,0)" xlink:href="#bd"/><use transform="matrix(0.013020833333333334,0,0,0.013020833333333334,64.01041666666667,0)" xlink:href="#be"/><use transform="matrix(0.013020833333333334,0,0,0.013020833333333334,80.01302083333334,0)" xlink:href="#bf"/><use transform="matrix(0.013020833333333334,0,0,0.013020833333333334,96.01562500000001,0)" xlink:href="#bg"/><use transform="matrix(0.013020833333333334,0,0,0.013020833333333334,112.0182291666667,0)" xlink:href="#bg"/><use transform="matrix(0.013020833333333334,0,0,0.013020833333333334,128.02083333333334,0)" xlink:href="#bc"/><use transform="matrix(0.013020833333333334,0,0,0.013020833333333334,144.0234375,0)" xlink:href="#bh"/><use transform="matrix(0.013020833333333334,0,0,0.013020833333333334,160.02604166666666,0)" xlink:href="#bi"/><use transform="matrix(0.013020833333333334,0,0,0.013020833333333334,176.02864583333331,0)" xlink:href="#bd"/><use transform="matrix(0.013020833333333334,0,0,0.013020833333333334,192.03124999999997,0)" xlink:href="#bj"/><use transform="matrix(0.013020833333333334,0,0,0.013020833333333334,208.03385416666663,0)" xlink:href="#bk"/><use transform="matrix(0.013020833333333334,0,0,0.013020833333333334,224.0364583333333,0)" xlink:href="#bl"/></g><g id="E"><use transform="matrix(0.06172839506172839,0,0,0.06172839506172839,0,0)" xlink:href="#ad"/><use transform="matrix(0.06172839506172839,0,0,0.06172839506172839,14.814814814814813,0)" xlink:href="#W"/><use transform="matrix(0.06172839506172839,0,0,0.06172839506172839,27.160493827160494,0)" xlink:href="#ay"/><use transform="matrix(0.06172839506172839,0,0,0.06172839506172839,32.03703703703704,0)" xlink:href="#W"/><use transform="matrix(0.06172839506172839,0,0,0.06172839506172839,44.382716049382715,0)" xlink:href="#af"/><use transform="matrix(0.06172839506172839,0,0,0.06172839506172839,55.49382716049382,0)" xlink:href="#X"/><use transform="matrix(0.06172839506172839,0,0,0.06172839506172839,61.666666666666664,0)" xlink:href="#ab"/><use transform="matrix(0.06172839506172839,0,0,0.06172839506172839,66.5432098765432,0)" xlink:href="#as"/><use transform="matrix(0.06172839506172839,0,0,0.06172839506172839,77.65432098765432,0)" xlink:href="#W"/></g><g id="F"><use transform="matrix(0.06172839506172839,0,0,0.06172839506172839,0,0)" xlink:href="#ah"/><use transform="matrix(0.06172839506172839,0,0,0.06172839506172839,15.987654320987653,0)" xlink:href="#ai"/><use transform="matrix(0.06172839506172839,0,0,0.06172839506172839,27.098765432098766,0)" xlink:href="#W"/><use transform="matrix(0.06172839506172839,0,0,0.06172839506172839,39.44444444444444,0)" xlink:href="#U"/></g><path fill="#3a414a" d="M141 0L90-78 38 0H4l68-98-65-92h35l48 74 47-74h35l-64 92 68 98h-35" id="bm"/><g id="G"><use transform="matrix(0.06172839506172839,0,0,0.06172839506172839,0,0)" xlink:href="#S"/><use transform="matrix(0.06172839506172839,0,0,0.06172839506172839,11.049382716049381,0)" xlink:href="#W"/><use transform="matrix(0.06172839506172839,0,0,0.06172839506172839,23.39506172839506,0)" xlink:href="#bm"/><use transform="matrix(0.06172839506172839,0,0,0.06172839506172839,34.50617283950617,0)" xlink:href="#X"/></g><g id="H"><use transform="matrix(0.06172839506172839,0,0,0.06172839506172839,0,0)" xlink:href="#az"/><use transform="matrix(0.06172839506172839,0,0,0.06172839506172839,14.814814814814813,0)" xlink:href="#U"/><use transform="matrix(0.06172839506172839,0,0,0.06172839506172839,22.160493827160494,0)" xlink:href="#Z"/><use transform="matrix(0.06172839506172839,0,0,0.06172839506172839,34.50617283950617,0)" xlink:href="#aA"/><use transform="matrix(0.06172839506172839,0,0,0.06172839506172839,40.67901234567901,0)" xlink:href="#ab"/><use transform="matrix(0.06172839506172839,0,0,0.06172839506172839,45.55555555555556,0)" xlink:href="#ay"/><use transform="matrix(0.06172839506172839,0,0,0.06172839506172839,50.4320987654321,0)" xlink:href="#W"/></g><path fill="#3a414a" d="M160-131c35 5 61 23 61 61C221 17 115-2 30 0v-248c76 3 177-17 177 60 0 33-19 50-47 57zm-97-11c50-1 110 9 110-42 0-47-63-36-110-37v79zm0 115c55-2 124 14 124-45 0-56-70-42-124-44v89" id="bn"/><use transform="matrix(0.06172839506172839,0,0,0.06172839506172839,0,0)" xlink:href="#bn" id="I"/><path fill="#3a414a" d="M33 0v-38h34V0H33" id="bo"/><g id="J"><use transform="matrix(0.06172839506172839,0,0,0.06172839506172839,0,0)" xlink:href="#bo"/><use transform="matrix(0.06172839506172839,0,0,0.06172839506172839,6.172839506172839,0)" xlink:href="#bo"/><use transform="matrix(0.06172839506172839,0,0,0.06172839506172839,12.345679012345679,0)" xlink:href="#bo"/><use transform="matrix(0.06172839506172839,0,0,0.06172839506172839,18.51851851851852,0)" xlink:href="#bo"/><use transform="matrix(0.06172839506172839,0,0,0.06172839506172839,24.691358024691358,0)" xlink:href="#bo"/><use transform="matrix(0.06172839506172839,0,0,0.06172839506172839,30.864197530864196,0)" xlink:href="#bo"/><use transform="matrix(0.06172839506172839,0,0,0.06172839506172839,37.03703703703704,0)" xlink:href="#bo"/><use transform="matrix(0.06172839506172839,0,0,0.06172839506172839,43.20987654320988,0)" xlink:href="#bo"/><use transform="matrix(0.06172839506172839,0,0,0.06172839506172839,49.38271604938272,0)" xlink:href="#bo"/><use transform="matrix(0.06172839506172839,0,0,0.06172839506172839,55.555555555555564,0)" xlink:href="#bo"/><use transform="matrix(0.06172839506172839,0,0,0.06172839506172839,61.728395061728406,0)" xlink:href="#bo"/><use transform="matrix(0.06172839506172839,0,0,0.06172839506172839,67.90123456790124,0)" xlink:href="#bo"/><use transform="matrix(0.06172839506172839,0,0,0.06172839506172839,74.07407407407408,0)" xlink:href="#bo"/><use transform="matrix(0.06172839506172839,0,0,0.06172839506172839,80.24691358024691,0)" xlink:href="#bo"/><use transform="matrix(0.06172839506172839,0,0,0.06172839506172839,86.41975308641975,0)" xlink:href="#bo"/><use transform="matrix(0.06172839506172839,0,0,0.06172839506172839,92.59259259259258,0)" xlink:href="#bo"/></g><g id="K"><use transform="matrix(0.06172839506172839,0,0,0.06172839506172839,0,0)" xlink:href="#S"/><use transform="matrix(0.06172839506172839,0,0,0.06172839506172839,12.716049382716047,0)" xlink:href="#U"/><use transform="matrix(0.06172839506172839,0,0,0.06172839506172839,20.061728395061728,0)" xlink:href="#T"/><use transform="matrix(0.06172839506172839,0,0,0.06172839506172839,32.407407407407405,0)" xlink:href="#ab"/><use transform="matrix(0.06172839506172839,0,0,0.06172839506172839,37.28395061728395,0)" xlink:href="#ac"/></g><path fill="#3a414a" d="M137 0h-34L2-248h35l83 218 83-218h36" id="bp"/><g id="L"><use transform="matrix(0.06172839506172839,0,0,0.06172839506172839,0,0)" xlink:href="#bp"/><use transform="matrix(0.06172839506172839,0,0,0.06172839506172839,13.148148148148147,0)" xlink:href="#T"/><use transform="matrix(0.06172839506172839,0,0,0.06172839506172839,25.493827160493826,0)" xlink:href="#ay"/><use transform="matrix(0.06172839506172839,0,0,0.06172839506172839,30.370370370370367,0)" xlink:href="#ab"/><use transform="matrix(0.06172839506172839,0,0,0.06172839506172839,35.24691358024691,0)" xlink:href="#au"/><use transform="matrix(0.06172839506172839,0,0,0.06172839506172839,47.59259259259259,0)" xlink:href="#T"/><use transform="matrix(0.06172839506172839,0,0,0.06172839506172839,59.938271604938265,0)" xlink:href="#X"/><use transform="matrix(0.06172839506172839,0,0,0.06172839506172839,66.1111111111111,0)" xlink:href="#ab"/><use transform="matrix(0.06172839506172839,0,0,0.06172839506172839,70.98765432098764,0)" xlink:href="#Z"/><use transform="matrix(0.06172839506172839,0,0,0.06172839506172839,83.33333333333333,0)" xlink:href="#ac"/></g><g id="M"><use transform="matrix(0.06172839506172839,0,0,0.06172839506172839,0,0)" xlink:href="#Y"/><use transform="matrix(0.06172839506172839,0,0,0.06172839506172839,15.987654320987653,0)" xlink:href="#T"/><use transform="matrix(0.06172839506172839,0,0,0.06172839506172839,28.333333333333332,0)" xlink:href="#X"/><use transform="matrix(0.06172839506172839,0,0,0.06172839506172839,34.50617283950617,0)" xlink:href="#T"/></g><g id="N"><use transform="matrix(0.06172839506172839,0,0,0.06172839506172839,0,0)" xlink:href="#aA"/><use transform="matrix(0.06172839506172839,0,0,0.06172839506172839,6.172839506172839,0)" xlink:href="#Z"/><use transform="matrix(0.06172839506172839,0,0,0.06172839506172839,18.51851851851852,0)" xlink:href="#U"/></g><g id="O"><use transform="matrix(0.06172839506172839,0,0,0.06172839506172839,0,0)" xlink:href="#av"/><use transform="matrix(0.06172839506172839,0,0,0.06172839506172839,6.172839506172839,0)" xlink:href="#ac"/><use transform="matrix(0.06172839506172839,0,0,0.06172839506172839,18.51851851851852,0)" xlink:href="#aA"/><use transform="matrix(0.06172839506172839,0,0,0.06172839506172839,24.691358024691358,0)" xlink:href="#W"/><use transform="matrix(0.06172839506172839,0,0,0.06172839506172839,37.03703703703704,0)" xlink:href="#U"/><use transform="matrix(0.06172839506172839,0,0,0.06172839506172839,44.382716049382715,0)" xlink:href="#W"/><use transform="matrix(0.06172839506172839,0,0,0.06172839506172839,56.72839506172839,0)" xlink:href="#ac"/><use transform="matrix(0.06172839506172839,0,0,0.06172839506172839,69.07407407407408,0)" xlink:href="#af"/><use transform="matrix(0.06172839506172839,0,0,0.06172839506172839,80.18518518518519,0)" xlink:href="#W"/></g><g id="P"><use transform="matrix(0.06172839506172839,0,0,0.06172839506172839,0,0)" xlink:href="#av"/><use transform="matrix(0.06172839506172839,0,0,0.06172839506172839,6.172839506172839,0)" xlink:href="#X"/><use transform="matrix(0.06172839506172839,0,0,0.06172839506172839,12.345679012345679,0)" xlink:href="#W"/><use transform="matrix(0.06172839506172839,0,0,0.06172839506172839,24.691358024691358,0)" xlink:href="#aa"/></g><g id="Q"><use transform="matrix(0.06172839506172839,0,0,0.06172839506172839,0,0)" xlink:href="#Y"/><use transform="matrix(0.06172839506172839,0,0,0.06172839506172839,15.987654320987653,0)" xlink:href="#W"/><use transform="matrix(0.06172839506172839,0,0,0.06172839506172839,28.333333333333332,0)" xlink:href="#ai"/><use transform="matrix(0.06172839506172839,0,0,0.06172839506172839,39.44444444444444,0)" xlink:href="#af"/><use transform="matrix(0.06172839506172839,0,0,0.06172839506172839,50.55555555555556,0)" xlink:href="#U"/><use transform="matrix(0.06172839506172839,0,0,0.06172839506172839,57.901234567901234,0)" xlink:href="#ab"/><use transform="matrix(0.06172839506172839,0,0,0.06172839506172839,62.77777777777778,0)" xlink:href="#ap"/><use transform="matrix(0.06172839506172839,0,0,0.06172839506172839,75.12345679012346,0)" xlink:href="#X"/><use transform="matrix(0.06172839506172839,0,0,0.06172839506172839,81.29629629629629,0)" xlink:href="#ab"/><use transform="matrix(0.06172839506172839,0,0,0.06172839506172839,86.17283950617283,0)" xlink:href="#Z"/><use transform="matrix(0.06172839506172839,0,0,0.06172839506172839,98.51851851851852,0)" xlink:href="#ac"/><use transform="matrix(0.06172839506172839,0,0,0.06172839506172839,110.8641975308642,0)" xlink:href="#ai"/></g><g id="R"><use transform="matrix(0.06172839506172839,0,0,0.06172839506172839,0,0)" xlink:href="#ar"/><use transform="matrix(0.06172839506172839,0,0,0.06172839506172839,15.987654320987653,0)" xlink:href="#T"/><use transform="matrix(0.06172839506172839,0,0,0.06172839506172839,28.333333333333332,0)" xlink:href="#X"/><use transform="matrix(0.06172839506172839,0,0,0.06172839506172839,34.50617283950617,0)" xlink:href="#ab"/><use transform="matrix(0.06172839506172839,0,0,0.06172839506172839,39.382716049382715,0)" xlink:href="#ac"/><use transform="matrix(0.06172839506172839,0,0,0.06172839506172839,51.72839506172839,0)" xlink:href="#V"/><use transform="matrix(0.06172839506172839,0,0,0.06172839506172839,64.07407407407408,0)" xlink:href="#ai"/></g></defs></g></svg>