<svg xmlns="http://www.w3.org/2000/svg" xmlns:xlink="http://www.w3.org/1999/xlink" xmlns:lucid="lucid" width="1091" height="955.25"><g transform="translate(-198.99999999999977 -99)" lucid:page-tab-id="0_0"><path d="M500 160.3a6 6 0 0 1 6-6h215.33a6 6 0 0 1 6 6v103.4a6 6 0 0 1-6 6H506a6 6 0 0 1-6-6z" stroke="#82755b" stroke-width="2" fill="#fff3d9"/><use xlink:href="#a" transform="matrix(1,0,0,1,512,166.29687500000003) translate(0.6501736111111711 40.675347222222214)"/><use xlink:href="#b" transform="matrix(1,0,0,1,512,166.29687500000003) translate(53.99218750000003 40.675347222222214)"/><use xlink:href="#c" transform="matrix(1,0,0,1,512,166.29687500000003) translate(48.65798611111114 59.4253472222222)"/><path d="M500 392.5a6 6 0 0 1 6-6h215.33a6 6 0 0 1 6 6v103.42a6 6 0 0 1-6 6H506a6 6 0 0 1-6-6z" stroke="#82755b" stroke-width="2" fill="#fff3d9"/><use xlink:href="#d" transform="matrix(1,0,0,1,512,398.51480123005683) translate(0.6501736111111711 40.675347222222214)"/><use xlink:href="#b" transform="matrix(1,0,0,1,512,398.51480123005683) translate(53.99218750000003 40.675347222222214)"/><use xlink:href="#c" transform="matrix(1,0,0,1,512,398.51480123005683) translate(48.65798611111114 59.4253472222222)"/><path d="M860 160.3a6 6 0 0 1 6-6h7.5a6 6 0 0 1 6 6V295a6 6 0 0 1-6 6H866a6 6 0 0 1-6-6z" stroke="#282c33" stroke-width="2" fill="#fe7070"/><path d="M861 192.8h17.5M861.5 227.65H879M861 264.32h17.5" stroke="#282c33" stroke-width="2" stroke-linecap="round" fill="none"/><path d="M893.86 205.12a6 6 0 0 1 8-2.85l137 64.98a3.37 3.37 0 0 0 4.5-1.6 1.3 1.3 0 0 1 2.4.18l2.52 8.42a6.67 6.67 0 0 1-3.82 8.06l-8.1 3.4a1.3 1.3 0 0 1-1.68-1.76 3.37 3.37 0 0 0-1.6-4.5l-137-64.98a6 6 0 0 1-2.86-8zM886.85 441.53a6 6 0 0 1 3.88-7.54l142.43-45.7a3.38 3.38 0 0 0 2.18-4.23 1.3 1.3 0 0 1 1.88-1.52l7.6 4.43a6.67 6.67 0 0 1 2.72 8.5l-3.6 8a1.3 1.3 0 0 1-2.42-.13 3.38 3.38 0 0 0-4.24-2.18l-142.42 45.67a6 6 0 0 1-7.55-3.88z" stroke="#fc9432" stroke-width="2" fill="#fc9432"/><path d="M1040 296.64a6 6 0 0 1 6-6h116a6 6 0 0 1 6 6v74.5a6 6 0 0 1-6 6h-116a6 6 0 0 1-6-6z" stroke="#82755b" stroke-width="2" fill="#ffd9d9"/><use xlink:href="#e" transform="matrix(1,0,0,1,1052,302.63754950130397) translate(7.9928385416666785 24.28797743055555)"/><use xlink:href="#f" transform="matrix(1,0,0,1,1052,302.63754950130397) translate(0.6583116319444571 50.06922743055554)"/><path d="M750.24 126a6 6 0 0 1 6-6h228a6 6 0 0 1 6 6v19.33a6 6 0 0 1-6 6h-228a6 6 0 0 1-6-6z" stroke="#000" stroke-opacity="0" stroke-width="2" fill-opacity="0"/><use xlink:href="#g" transform="matrix(1,0,0,1,755.2439024390244,125) translate(6.51234567901237 15.597222222222221)"/><use xlink:href="#h" transform="matrix(1,0,0,1,755.2439024390244,125) translate(48.882716049382736 15.597222222222221)"/><use xlink:href="#i" transform="matrix(1,0,0,1,755.2439024390244,125) translate(174.16666666666663 15.597222222222221)"/><path d="M760 507.92a6 6 0 0 1 6-6h228a6 6 0 0 1 6 6v19.33a6 6 0 0 1-6 6H766a6 6 0 0 1-6-6z" stroke="#000" stroke-opacity="0" stroke-width="2" fill-opacity="0"/><use xlink:href="#j" transform="matrix(1,0,0,1,765,506.92105123005683) translate(7.969135802469154 15.597222222222221)"/><use xlink:href="#h" transform="matrix(1,0,0,1,765,506.92105123005683) translate(47.42592592592594 15.597222222222221)"/><use xlink:href="#i" transform="matrix(1,0,0,1,765,506.92105123005683) translate(172.70987654320987 15.597222222222221)"/><path d="M1180 332.75a6 6 0 0 1 6-6h58.47a3.38 3.38 0 0 0 3.38-3.38 1.3 1.3 0 0 1 2.26-.86l5.9 6.54a6.67 6.67 0 0 1 0 8.92l-5.9 6.53a1.3 1.3 0 0 1-2.25-.88 3.38 3.38 0 0 0-3.38-3.37H1186a6 6 0 0 1-6-6z" stroke="#fc9432" stroke-width="2" fill="#fc9432"/><path d="M1180 353a6 6 0 0 1 6-6h68a6 6 0 0 1 6 6v36.44a6 6 0 0 1-6 6h-68a6 6 0 0 1-6-6z" stroke="#000" stroke-opacity="0" stroke-width="2" fill-opacity="0"/><use xlink:href="#k" transform="matrix(1,0,0,1,1185,351.99999999999994) translate(18.240740740740744 16.65972222222222)"/><use xlink:href="#l" transform="matrix(1,0,0,1,1185,351.99999999999994) translate(12.314814814814817 37.99305555555556)"/><path d="M380 443.47a6 6 0 0 1 6-6h78.48a3.38 3.38 0 0 0 3.37-3.38 1.3 1.3 0 0 1 2.26-.87l5.9 6.53a6.67 6.67 0 0 1 0 8.92l-5.9 6.53a1.3 1.3 0 0 1-2.25-.86 3.38 3.38 0 0 0-3.37-3.37H386a6 6 0 0 1-6-6zM380 206.75a6 6 0 0 1 6-6h78.48a3.38 3.38 0 0 0 3.37-3.37 1.3 1.3 0 0 1 2.26-.87l5.9 6.54a6.67 6.67 0 0 1 0 8.92l-5.9 6.53a1.3 1.3 0 0 1-2.25-.87 3.38 3.38 0 0 0-3.37-3.38H386a6 6 0 0 1-6-6z" stroke="#fc9432" stroke-width="2" fill="#fc9432"/><path d="M220 184.9a6 6 0 0 1 6-6h128a6 6 0 0 1 6 6v45.2a6 6 0 0 1-6 6H226a6 6 0 0 1-6-6z" stroke="#282c33" stroke-width="2" fill="#fe7070"/><use xlink:href="#m" transform="matrix(1,0,0,1,224.99999999999977,183.91298780959912) translate(11.6579861111111 30.50043402777778)"/><use xlink:href="#n" transform="matrix(1,0,0,1,224.99999999999977,183.91298780959912) translate(105.00651041666667 30.50043402777778)"/><path d="M220 421.63a6 6 0 0 1 6-6h128a6 6 0 0 1 6 6v45.18a6 6 0 0 1-6 6H226a6 6 0 0 1-6-6z" stroke="#282c33" stroke-width="2" fill="#fe7070"/><use xlink:href="#m" transform="matrix(1,0,0,1,224.99999999999977,420.6309140396559) translate(11.6579861111111 30.50043402777778)"/><use xlink:href="#n" transform="matrix(1,0,0,1,224.99999999999977,420.6309140396559) translate(105.00651041666667 30.50043402777778)"/><path d="M740 206.75a6 6 0 0 1 6-6h78.48a3.38 3.38 0 0 0 3.37-3.37 1.3 1.3 0 0 1 2.26-.87l5.9 6.54a6.67 6.67 0 0 1 0 8.92l-5.9 6.53a1.3 1.3 0 0 1-2.25-.87 3.38 3.38 0 0 0-3.37-3.38H746a6 6 0 0 1-6-6zM740 439.5a6 6 0 0 1 6-6h78.48a3.38 3.38 0 0 0 3.37-3.38 1.3 1.3 0 0 1 2.26-.87l5.9 6.53a6.67 6.67 0 0 1 0 8.92l-5.9 6.53a1.3 1.3 0 0 1-2.25-.86 3.38 3.38 0 0 0-3.37-3.38H746a6 6 0 0 1-6-6z" stroke="#fc9432" stroke-width="2" fill="#fc9432"/><path d="M859.5 361.22a6 6 0 0 1 6-6h7.52a6 6 0 0 1 6 6v134.7a6 6 0 0 1-6 6h-7.5a6 6 0 0 1-6-6z" stroke="#282c33" stroke-width="2" fill="#fe7070"/><path d="M860.5 393.73h17.52M861 428.57h17.5M860.5 465.25h17.52" stroke="#282c33" stroke-width="2" stroke-linecap="round" fill="none"/><path d="M500 660.3a6 6 0 0 1 6-6h215.33a6 6 0 0 1 6 6v103.4a6 6 0 0 1-6 6H506a6 6 0 0 1-6-6z" stroke="#82755b" stroke-width="2" fill="#fff3d9"/><use xlink:href="#a" transform="matrix(1,0,0,1,512.0000000000005,666.296875) translate(0.6501736111111711 40.675347222222214)"/><use xlink:href="#b" transform="matrix(1,0,0,1,512.0000000000005,666.296875) translate(53.99218750000003 40.675347222222214)"/><use xlink:href="#c" transform="matrix(1,0,0,1,512.0000000000005,666.296875) translate(48.65798611111114 59.4253472222222)"/><path d="M500 892.5a6 6 0 0 1 6-6h215.33a6 6 0 0 1 6 6v103.42a6 6 0 0 1-6 6H506a6 6 0 0 1-6-6z" stroke="#82755b" stroke-width="2" fill="#fff3d9"/><use xlink:href="#d" transform="matrix(1,0,0,1,512.0000000000002,898.5148012300568) translate(0.6501736111111711 40.675347222222214)"/><use xlink:href="#b" transform="matrix(1,0,0,1,512.0000000000002,898.5148012300568) translate(53.99218750000003 40.675347222222214)"/><use xlink:href="#c" transform="matrix(1,0,0,1,512.0000000000002,898.5148012300568) translate(48.65798611111114 59.4253472222222)"/><path d="M860 660.3a6 6 0 0 1 6-6h7.5a6 6 0 0 1 6 6V795a6 6 0 0 1-6 6H866a6 6 0 0 1-6-6z" stroke="#282c33" stroke-width="2" fill="#fe7070"/><path d="M861 692.8h17.5M861.5 727.65H879M861 764.32h17.5" stroke="#282c33" stroke-width="2" stroke-linecap="round" fill="none"/><path d="M893.86 705.12a6 6 0 0 1 8-2.85l137 64.98a3.37 3.37 0 0 0 4.5-1.6 1.3 1.3 0 0 1 2.4.18l2.52 8.42a6.67 6.67 0 0 1-3.82 8.06l-8.1 3.4a1.3 1.3 0 0 1-1.68-1.76 3.37 3.37 0 0 0-1.6-4.5l-137-64.98a6 6 0 0 1-2.86-8zM886.85 941.53a6 6 0 0 1 3.88-7.54l142.43-45.7a3.38 3.38 0 0 0 2.18-4.23 1.3 1.3 0 0 1 1.88-1.52l7.6 4.43a6.67 6.67 0 0 1 2.72 8.5l-3.6 8a1.3 1.3 0 0 1-2.42-.13 3.38 3.38 0 0 0-4.24-2.18l-142.42 45.67a6 6 0 0 1-7.55-3.88z" stroke="#fc9432" stroke-width="2" fill="#fc9432"/><path d="M1040 796.64a6 6 0 0 1 6-6h116a6 6 0 0 1 6 6v74.5a6 6 0 0 1-6 6h-116a6 6 0 0 1-6-6z" stroke="#82755b" stroke-width="2" fill="#fbf0ff"/><use xlink:href="#o" transform="matrix(1,0,0,1,1052,802.637549501304) translate(7.9928385416666785 24.28797743055555)"/><use xlink:href="#p" transform="matrix(1,0,0,1,1052,802.637549501304) translate(0.6583116319444571 50.06922743055554)"/><path d="M750.24 626a6 6 0 0 1 6-6h228a6 6 0 0 1 6 6v19.33a6 6 0 0 1-6 6h-228a6 6 0 0 1-6-6z" stroke="#000" stroke-opacity="0" stroke-width="2" fill-opacity="0"/><use xlink:href="#g" transform="matrix(1,0,0,1,755.2439024390246,625) translate(6.51234567901237 15.597222222222221)"/><use xlink:href="#h" transform="matrix(1,0,0,1,755.2439024390246,625) translate(48.882716049382736 15.597222222222221)"/><use xlink:href="#i" transform="matrix(1,0,0,1,755.2439024390246,625) translate(174.16666666666663 15.597222222222221)"/><path d="M760 1007.92a6 6 0 0 1 6-6h228a6 6 0 0 1 6 6v19.33a6 6 0 0 1-6 6H766a6 6 0 0 1-6-6z" stroke="#000" stroke-opacity="0" stroke-width="2" fill-opacity="0"/><use xlink:href="#j" transform="matrix(1,0,0,1,765,1006.9210512300568) translate(7.969135802469154 15.597222222222221)"/><use xlink:href="#h" transform="matrix(1,0,0,1,765,1006.9210512300568) translate(47.42592592592594 15.597222222222221)"/><use xlink:href="#i" transform="matrix(1,0,0,1,765,1006.9210512300568) translate(172.70987654320987 15.597222222222221)"/><path d="M1180 832.75a6 6 0 0 1 6-6h58.47a3.38 3.38 0 0 0 3.38-3.38 1.3 1.3 0 0 1 2.26-.86l5.9 6.54a6.67 6.67 0 0 1 0 8.92l-5.9 6.53a1.3 1.3 0 0 1-2.25-.88 3.38 3.38 0 0 0-3.38-3.37H1186a6 6 0 0 1-6-6z" stroke="#fc9432" stroke-width="2" fill="#fc9432"/><path d="M1180 853a6 6 0 0 1 6-6h68a6 6 0 0 1 6 6v36.44a6 6 0 0 1-6 6h-68a6 6 0 0 1-6-6z" stroke="#000" stroke-opacity="0" stroke-width="2" fill-opacity="0"/><g><use xlink:href="#k" transform="matrix(1,0,0,1,1185,852) translate(18.240740740740744 16.65972222222222)"/><use xlink:href="#l" transform="matrix(1,0,0,1,1185,852) translate(12.314814814814817 37.99305555555556)"/></g><g><path d="M380 943.47a6 6 0 0 1 6-6h78.48a3.38 3.38 0 0 0 3.37-3.38 1.3 1.3 0 0 1 2.26-.87l5.9 6.53a6.67 6.67 0 0 1 0 8.92l-5.9 6.53a1.3 1.3 0 0 1-2.25-.86 3.38 3.38 0 0 0-3.37-3.37H386a6 6 0 0 1-6-6z" stroke="#fc9432" stroke-width="2" fill="#fc9432"/></g><g><path d="M380 706.75a6 6 0 0 1 6-6h78.48a3.38 3.38 0 0 0 3.37-3.37 1.3 1.3 0 0 1 2.26-.87l5.9 6.54a6.67 6.67 0 0 1 0 8.92l-5.9 6.53a1.3 1.3 0 0 1-2.25-.88 3.38 3.38 0 0 0-3.37-3.37H386a6 6 0 0 1-6-6z" stroke="#fc9432" stroke-width="2" fill="#fc9432"/></g><path d="M220 684.9a6 6 0 0 1 6-6h128a6 6 0 0 1 6 6v45.2a6 6 0 0 1-6 6H226a6 6 0 0 1-6-6z" stroke="#282c33" stroke-width="2" fill="#fe7070"/><g><use xlink:href="#m" transform="matrix(1,0,0,1,225,683.9129878095991) translate(11.6579861111111 30.50043402777778)"/><use xlink:href="#n" transform="matrix(1,0,0,1,225,683.9129878095991) translate(105.00651041666667 30.50043402777778)"/></g><path d="M220 921.63a6 6 0 0 1 6-6h128a6 6 0 0 1 6 6v45.17a6 6 0 0 1-6 6H226a6 6 0 0 1-6-6z" stroke="#282c33" stroke-width="2" fill="#6db1ff"/><g><use xlink:href="#m" transform="matrix(1,0,0,1,225,920.6309140396559) translate(11.6579861111111 30.50043402777778)"/><use xlink:href="#q" transform="matrix(1,0,0,1,225,920.6309140396559) translate(105.00651041666667 30.50043402777778)"/></g><g><path d="M740 706.75a6 6 0 0 1 6-6h78.48a3.38 3.38 0 0 0 3.37-3.37 1.3 1.3 0 0 1 2.26-.87l5.9 6.54a6.67 6.67 0 0 1 0 8.92l-5.9 6.53a1.3 1.3 0 0 1-2.25-.88 3.38 3.38 0 0 0-3.37-3.37H746a6 6 0 0 1-6-6z" stroke="#fc9432" stroke-width="2" fill="#fc9432"/></g><g><path d="M740 939.5a6 6 0 0 1 6-6h78.48a3.38 3.38 0 0 0 3.37-3.38 1.3 1.3 0 0 1 2.26-.87l5.9 6.53a6.67 6.67 0 0 1 0 8.92l-5.9 6.53a1.3 1.3 0 0 1-2.25-.86 3.38 3.38 0 0 0-3.37-3.38H746a6 6 0 0 1-6-6z" stroke="#fc9432" stroke-width="2" fill="#fc9432"/></g><path d="M859.5 861.22a6 6 0 0 1 6-6h7.52a6 6 0 0 1 6 6v134.7a6 6 0 0 1-6 6h-7.5a6 6 0 0 1-6-6z" stroke="#282c33" stroke-width="2" fill="#6db1ff"/><path d="M860.5 893.73h17.52M861 928.57h17.5M860.5 965.25h17.52" stroke="#282c33" stroke-width="2" stroke-linecap="round" fill="none"/><path d="M440 307a6 6 0 0 1 6-6h328a6 6 0 0 1 6 6v42.22a6 6 0 0 1-6 6H446a6 6 0 0 1-6-6z" stroke="#000" stroke-opacity="0" stroke-width="2" fill-opacity="0"/><g><use xlink:href="#r" transform="matrix(1,0,0,1,445,306) translate(106.32378472222223 28.77604166666666)"/></g><path d="M440 807a6 6 0 0 1 6-6h328a6 6 0 0 1 6 6v42.22a6 6 0 0 1-6 6H446a6 6 0 0 1-6-6z" stroke="#000" stroke-opacity="0" stroke-width="2" fill-opacity="0"/><g><use xlink:href="#s" transform="matrix(1,0,0,1,445,806) translate(98.98925781250001 28.77604166666666)"/></g><path d="M221 580.53h1048" stroke="#282c33" stroke-width="2" stroke-linecap="round" fill="none"/><defs><path fill="#82755b" d="M1100-543c2 361-147 563-501 563-342 0-470-199-470-548v-821h295v818c3 172 13 322 183 320 173-2 198-150 198-330v-808h295v806" id="t"/><path fill="#82755b" d="M622-916c-112 2-200 14-200 111 0 90 89 101 168 121 234 58 514 77 514 368C1104-4 751 54 434 5 267-21 161-112 121-270l247-37c24 111 113 145 252 141 114-3 226-12 226-124 0-101-103-113-192-134-225-54-490-76-490-351 0-247 201-328 458-328 245 0 413 88 457 292l-249 26c-16-98-92-133-208-131" id="u"/><path fill="#82755b" d="M1113-274C1038-96 884 20 626 20c-352 0-526-209-526-566 0-358 185-556 530-556 358 0 496 251 499 615H395c5 180 68 319 245 319 102 0 186-45 208-129zM857-663c-6-177-128-307-315-247-94 30-141 121-145 247h460" id="v"/><path fill="#82755b" d="M875-1102c70 0 148 7 206 17v237c-110-17-267-37-359 15-123 69-192 207-192 395V0H250c-10-367 32-789-52-1082h271c19 69 36 149 46 228h4c52-151 151-250 356-248" id="w"/><g id="a"><use transform="matrix(0.00868055555555555,0,0,0.00868055555555555,0,0)" xlink:href="#t"/><use transform="matrix(0.00868055555555555,0,0,0.00868055555555555,10.668402777777771,0)" xlink:href="#u"/><use transform="matrix(0.00868055555555555,0,0,0.00868055555555555,21.336805555555543,0)" xlink:href="#v"/><use transform="matrix(0.00868055555555555,0,0,0.00868055555555555,32.005208333333314,0)" xlink:href="#w"/></g><path fill="#82755b" d="M1157-949c0 209-118 316-279 368L1227 0H895L605-515H432V0H137v-1349h494c317-2 526 111 526 400zM608-744c158 1 248-51 252-193 5-207-223-184-428-183v376h176" id="x"/><path fill="#82755b" d="M427-171c3 195 2 397 2 596H148V-846c1-83-4-168-8-236h272c10 49 14 118 15 176h4c59-114 151-197 316-197 291 0 385 259 385 560 0 243-65 433-220 521-50 28-109 42-176 42-162-2-253-78-309-191zm69-661c-91 113-92 463-1 586 46 62 145 101 225 54 96-57 118-191 119-351 0-123-18-215-53-276-46-82-128-115-220-74-25 12-48 33-70 61" id="y"/><path fill="#82755b" d="M768-1103c247 0 336 167 336 416V0H824v-619c-3-164-24-273-171-273-164 0-229 142-229 312V0H143c-4-359 9-736-8-1082h268c7 63 12 146 13 215h4c67-145 160-236 348-236" id="z"/><path fill="#82755b" d="M711 13c-250 0-386-99-385-349l2-556H161v-190h181l88-282h176v282h385v190H606v530c-10 130 45 186 174 184 91-2 176-11 255-27v186C933-1 833 13 711 13" id="A"/><path fill="#82755b" d="M775-193C708-75 621 20 439 20 226 20 106-93 106-306c0-251 170-341 417-346l223-4c4-143-12-264-148-264-103 0-141 58-150 153l-293-14c37-219 194-321 455-321 263 0 418 130 417 390v392c1 84 5 161 89 160 21 0 42-2 62-6v152c-57 15-108 27-180 26-145 0-202-73-217-205h-6zm-256 17c168 0 234-139 227-325-166 4-347-25-347 173 0 94 33 152 120 152" id="B"/><path fill="#82755b" d="M794-190h353V0H118v-190h395v-702H223v-190h571v892zM513-1277v-207h281v207H513" id="C"/><path fill="#82755b" d="M616-1102c361 0 521 202 521 560 0 354-171 562-527 562C259 20 92-192 92-542c0-351 169-560 524-560zm-9 930c200-2 236-165 236-370 0-199-27-367-223-367-195 0-233 146-233 367 0 129 18 223 55 282s92 88 165 88" id="D"/><g id="b"><use transform="matrix(0.00868055555555555,0,0,0.00868055555555555,0,0)" xlink:href="#x"/><use transform="matrix(0.00868055555555555,0,0,0.00868055555555555,10.668402777777771,0)" xlink:href="#v"/><use transform="matrix(0.00868055555555555,0,0,0.00868055555555555,21.336805555555543,0)" xlink:href="#y"/><use transform="matrix(0.00868055555555555,0,0,0.00868055555555555,32.005208333333314,0)" xlink:href="#w"/><use transform="matrix(0.00868055555555555,0,0,0.00868055555555555,42.673611111111086,0)" xlink:href="#v"/><use transform="matrix(0.00868055555555555,0,0,0.00868055555555555,53.34201388888886,0)" xlink:href="#u"/><use transform="matrix(0.00868055555555555,0,0,0.00868055555555555,64.01041666666663,0)" xlink:href="#v"/><use transform="matrix(0.00868055555555555,0,0,0.00868055555555555,74.6788194444444,0)" xlink:href="#z"/><use transform="matrix(0.00868055555555555,0,0,0.00868055555555555,85.34722222222217,0)" xlink:href="#A"/><use transform="matrix(0.00868055555555555,0,0,0.00868055555555555,96.01562499999994,0)" xlink:href="#B"/><use transform="matrix(0.00868055555555555,0,0,0.00868055555555555,106.68402777777771,0)" xlink:href="#A"/><use transform="matrix(0.00868055555555555,0,0,0.00868055555555555,117.35243055555549,0)" xlink:href="#C"/><use transform="matrix(0.00868055555555555,0,0,0.00868055555555555,128.02083333333326,0)" xlink:href="#D"/><use transform="matrix(0.00868055555555555,0,0,0.00868055555555555,138.68923611111103,0)" xlink:href="#z"/></g><path fill="#82755b" d="M650-216c90 0 157-35 208-74v-235H584v-218h544v558C1004-84 858 20 635 20 235 20 80-276 80-681c0-416 146-689 558-689 277 0 398 160 462 375l-274 54c-31-108-73-197-185-197-231 0-262 217-262 457 0 149 22 263 67 344s113 121 204 121" id="E"/><g id="c"><use transform="matrix(0.00868055555555555,0,0,0.00868055555555555,0,0)" xlink:href="#E"/><use transform="matrix(0.00868055555555555,0,0,0.00868055555555555,10.668402777777771,0)" xlink:href="#v"/><use transform="matrix(0.00868055555555555,0,0,0.00868055555555555,21.336805555555543,0)" xlink:href="#z"/><use transform="matrix(0.00868055555555555,0,0,0.00868055555555555,32.005208333333314,0)" xlink:href="#v"/><use transform="matrix(0.00868055555555555,0,0,0.00868055555555555,42.673611111111086,0)" xlink:href="#w"/><use transform="matrix(0.00868055555555555,0,0,0.00868055555555555,53.34201388888886,0)" xlink:href="#B"/><use transform="matrix(0.00868055555555555,0,0,0.00868055555555555,64.01041666666663,0)" xlink:href="#A"/><use transform="matrix(0.00868055555555555,0,0,0.00868055555555555,74.6788194444444,0)" xlink:href="#C"/><use transform="matrix(0.00868055555555555,0,0,0.00868055555555555,85.34722222222217,0)" xlink:href="#D"/><use transform="matrix(0.00868055555555555,0,0,0.00868055555555555,96.01562499999994,0)" xlink:href="#z"/></g><path fill="#82755b" d="M157-1349h916v228H762v893h311V0H157v-228h311v-893H157v-228" id="F"/><path fill="#82755b" d="M934-1102c199 0 220 177 220 381V0H926c-2-260 10-533-4-785-4-72-14-138-83-138-34 0-61 27-81 81s-29 134-29 241V0H501c-2-260 9-533-5-785-4-72-13-138-82-138-46 0-65 47-80 93-21 67-30 155-30 248V0H75c-3-360 6-732-6-1082h209c6 50 3 123 8 175 36-100 83-195 216-195 135 0 166 79 196 196 42-105 93-196 236-196" id="G"/><g id="d"><use transform="matrix(0.00868055555555555,0,0,0.00868055555555555,0,0)" xlink:href="#F"/><use transform="matrix(0.00868055555555555,0,0,0.00868055555555555,10.668402777777771,0)" xlink:href="#A"/><use transform="matrix(0.00868055555555555,0,0,0.00868055555555555,21.336805555555543,0)" xlink:href="#v"/><use transform="matrix(0.00868055555555555,0,0,0.00868055555555555,32.005208333333314,0)" xlink:href="#G"/></g><path fill="#82755b" d="M609-1161c-125 0-218 36-218 153 0 149 166 161 290 196 235 67 484 129 484 421 0 300-239 408-554 411C302 23 93-114 38-367l285-37c32 128 131 205 296 203 143-2 259-31 259-173 0-164-197-172-333-212-218-64-441-131-441-405 0-276 231-379 511-379 299 0 463 114 513 363l-286 29c-28-115-96-183-233-183" id="H"/><path fill="#82755b" d="M1109-360C1066-122 902 20 624 20c-347 0-514-209-514-555 0-353 168-567 518-567 270 0 425 136 473 361l-283 14c-16-106-75-183-196-182-75 0-130 31-165 93s-52 152-52 270c0 249 74 374 221 374 120 0 188-82 201-201" id="I"/><path fill="#82755b" d="M794-190h353V0H118v-190h395v-1104H223v-190h571v1294" id="J"/><g id="e"><use transform="matrix(0.011935763888888886,0,0,0.011935763888888886,0,0)" xlink:href="#H"/><use transform="matrix(0.011935763888888886,0,0,0.011935763888888886,14.669053819444441,0)" xlink:href="#I"/><use transform="matrix(0.011935763888888886,0,0,0.011935763888888886,29.338107638888882,0)" xlink:href="#B"/><use transform="matrix(0.011935763888888886,0,0,0.011935763888888886,44.00716145833332,0)" xlink:href="#J"/><use transform="matrix(0.011935763888888886,0,0,0.011935763888888886,58.676215277777764,0)" xlink:href="#B"/><use transform="matrix(0.011935763888888886,0,0,0.011935763888888886,73.3452690972222,0)" xlink:href="#w"/></g><path fill="#82755b" d="M616-1349c316 3 526 118 526 426 0 301-201 442-514 447H431V0H136v-1349h480zm-25 646c164 1 254-62 254-215 0-157-99-200-262-202H431v417h160" id="K"/><path fill="#82755b" d="M802-909c-3-189-2-383-2-575h281v1248c-1 83 4 168 8 236H817c-9-50-14-117-15-176h-4C735-49 651 20 482 20 191 20 97-238 97-539c0-243 66-432 221-519 50-28 108-42 175-42 162 2 253 78 309 191zm-70 658c91-113 93-462 2-584-46-61-145-100-224-53-96 56-119 190-120 349 0 123 17 214 52 275 46 82 130 115 222 74 25-12 46-33 68-61" id="L"/><path fill="#82755b" d="M471 20c-247 0-336-169-336-415v-687h281v607c4 148 31 285 172 285 152 0 207-150 207-312v-580h281c4 359-9 736 8 1082H816c-7-63-11-146-12-215h-5C736-76 644 20 471 20" id="M"/><g id="f"><use transform="matrix(0.011935763888888886,0,0,0.011935763888888886,0,0)" xlink:href="#K"/><use transform="matrix(0.011935763888888886,0,0,0.011935763888888886,14.669053819444441,0)" xlink:href="#w"/><use transform="matrix(0.011935763888888886,0,0,0.011935763888888886,29.338107638888882,0)" xlink:href="#D"/><use transform="matrix(0.011935763888888886,0,0,0.011935763888888886,44.00716145833332,0)" xlink:href="#L"/><use transform="matrix(0.011935763888888886,0,0,0.011935763888888886,58.676215277777764,0)" xlink:href="#M"/><use transform="matrix(0.011935763888888886,0,0,0.011935763888888886,73.3452690972222,0)" xlink:href="#I"/><use transform="matrix(0.011935763888888886,0,0,0.011935763888888886,88.01432291666664,0)" xlink:href="#A"/></g><path fill="#3a414a" d="M232-93c-1 65-40 97-104 97C67 4 28-28 28-90v-158h33c8 89-33 224 67 224 102 0 64-133 71-224h33v155" id="N"/><path fill="#3a414a" d="M135-143c-3-34-86-38-87 0 15 53 115 12 119 90S17 21 10-45l28-5c4 36 97 45 98 0-10-56-113-15-118-90-4-57 82-63 122-42 12 7 21 19 24 35" id="O"/><path fill="#3a414a" d="M100-194c63 0 86 42 84 106H49c0 40 14 67 53 68 26 1 43-12 49-29l28 8c-11 28-37 45-77 45C44 4 14-33 15-96c1-61 26-98 85-98zm52 81c6-60-76-77-97-28-3 7-6 17-6 28h103" id="P"/><path fill="#3a414a" d="M114-163C36-179 61-72 57 0H25l-1-190h30c1 12-1 29 2 39 6-27 23-49 58-41v29" id="Q"/><g id="g"><use transform="matrix(0.049382716049382706,0,0,0.049382716049382706,0,0)" xlink:href="#N"/><use transform="matrix(0.049382716049382706,0,0,0.049382716049382706,12.790123456790122,0)" xlink:href="#O"/><use transform="matrix(0.049382716049382706,0,0,0.049382716049382706,21.67901234567901,0)" xlink:href="#P"/><use transform="matrix(0.049382716049382706,0,0,0.049382716049382706,31.55555555555555,0)" xlink:href="#Q"/></g><path fill="#3a414a" d="M233-177c-1 41-23 64-60 70L243 0h-38l-65-103H63V0H30v-248c88 3 205-21 203 71zM63-129c60-2 137 13 137-47 0-61-80-42-137-45v92" id="R"/><path fill="#3a414a" d="M115-194c55 1 70 41 70 98S169 2 115 4C84 4 66-9 55-30l1 105H24l-1-265h31l2 30c10-21 28-34 59-34zm-8 174c40 0 45-34 45-75s-6-73-45-74c-42 0-51 32-51 76 0 43 10 73 51 73" id="S"/><path fill="#3a414a" d="M117-194c89-4 53 116 60 194h-32v-121c0-31-8-49-39-48C34-167 62-67 57 0H25l-1-190h30c1 10-1 24 2 32 11-22 29-35 61-36" id="T"/><path fill="#3a414a" d="M59-47c-2 24 18 29 38 22v24C64 9 27 4 27-40v-127H5v-23h24l9-43h21v43h35v23H59v120" id="U"/><path fill="#3a414a" d="M141-36C126-15 110 5 73 4 37 3 15-17 15-53c-1-64 63-63 125-63 3-35-9-54-41-54-24 1-41 7-42 31l-33-3c5-37 33-52 76-52 45 0 72 20 72 64v82c-1 20 7 32 28 27v20c-31 9-61-2-59-35zM48-53c0 20 12 33 32 33 41-3 63-29 60-74-43 2-92-5-92 41" id="V"/><path fill="#3a414a" d="M24-231v-30h32v30H24zM24 0v-190h32V0H24" id="W"/><path fill="#3a414a" d="M100-194c62-1 85 37 85 99 1 63-27 99-86 99S16-35 15-95c0-66 28-99 85-99zM99-20c44 1 53-31 53-75 0-43-8-75-51-75s-53 32-53 75 10 74 51 75" id="X"/><g id="h"><use transform="matrix(0.049382716049382706,0,0,0.049382716049382706,0,0)" xlink:href="#R"/><use transform="matrix(0.049382716049382706,0,0,0.049382716049382706,12.790123456790122,0)" xlink:href="#P"/><use transform="matrix(0.049382716049382706,0,0,0.049382716049382706,22.666666666666664,0)" xlink:href="#S"/><use transform="matrix(0.049382716049382706,0,0,0.049382716049382706,32.5432098765432,0)" xlink:href="#Q"/><use transform="matrix(0.049382716049382706,0,0,0.049382716049382706,38.419753086419746,0)" xlink:href="#P"/><use transform="matrix(0.049382716049382706,0,0,0.049382716049382706,48.29629629629629,0)" xlink:href="#O"/><use transform="matrix(0.049382716049382706,0,0,0.049382716049382706,57.185185185185176,0)" xlink:href="#P"/><use transform="matrix(0.049382716049382706,0,0,0.049382716049382706,67.06172839506172,0)" xlink:href="#T"/><use transform="matrix(0.049382716049382706,0,0,0.049382716049382706,76.93827160493827,0)" xlink:href="#U"/><use transform="matrix(0.049382716049382706,0,0,0.049382716049382706,81.87654320987653,0)" xlink:href="#V"/><use transform="matrix(0.049382716049382706,0,0,0.049382716049382706,91.75308641975307,0)" xlink:href="#U"/><use transform="matrix(0.049382716049382706,0,0,0.049382716049382706,96.69135802469134,0)" xlink:href="#W"/><use transform="matrix(0.049382716049382706,0,0,0.049382716049382706,100.59259259259257,0)" xlink:href="#X"/><use transform="matrix(0.049382716049382706,0,0,0.049382716049382706,110.46913580246911,0)" xlink:href="#T"/></g><path fill="#3a414a" d="M137 0h-34L2-248h35l83 218 83-218h36" id="Y"/><path fill="#3a414a" d="M96-169c-40 0-48 33-48 73s9 75 48 75c24 0 41-14 43-38l32 2c-6 37-31 61-74 61-59 0-76-41-82-99-10-93 101-131 147-64 4 7 5 14 7 22l-32 3c-4-21-16-35-41-35" id="Z"/><g id="i"><use transform="matrix(0.049382716049382706,0,0,0.049382716049382706,0,0)" xlink:href="#Y"/><use transform="matrix(0.049382716049382706,0,0,0.049382716049382706,10.864197530864196,0)" xlink:href="#P"/><use transform="matrix(0.049382716049382706,0,0,0.049382716049382706,20.740740740740737,0)" xlink:href="#Z"/><use transform="matrix(0.049382716049382706,0,0,0.049382716049382706,29.629629629629623,0)" xlink:href="#U"/><use transform="matrix(0.049382716049382706,0,0,0.049382716049382706,34.5679012345679,0)" xlink:href="#X"/><use transform="matrix(0.049382716049382706,0,0,0.049382716049382706,44.44444444444444,0)" xlink:href="#Q"/></g><path fill="#3a414a" d="M33 0v-248h34V0H33" id="aa"/><path fill="#3a414a" d="M210-169c-67 3-38 105-44 169h-31v-121c0-29-5-50-35-48C34-165 62-65 56 0H25l-1-190h30c1 10-1 24 2 32 10-44 99-50 107 0 11-21 27-35 58-36 85-2 47 119 55 194h-31v-121c0-29-5-49-35-48" id="ab"/><g id="j"><use transform="matrix(0.049382716049382706,0,0,0.049382716049382706,0,0)" xlink:href="#aa"/><use transform="matrix(0.049382716049382706,0,0,0.049382716049382706,4.93827160493827,0)" xlink:href="#U"/><use transform="matrix(0.049382716049382706,0,0,0.049382716049382706,9.87654320987654,0)" xlink:href="#P"/><use transform="matrix(0.049382716049382706,0,0,0.049382716049382706,19.75308641975308,0)" xlink:href="#ab"/></g><g id="k"><use transform="matrix(0.049382716049382706,0,0,0.049382716049382706,0,0)" xlink:href="#aa"/><use transform="matrix(0.049382716049382706,0,0,0.049382716049382706,4.93827160493827,0)" xlink:href="#U"/><use transform="matrix(0.049382716049382706,0,0,0.049382716049382706,9.87654320987654,0)" xlink:href="#P"/><use transform="matrix(0.049382716049382706,0,0,0.049382716049382706,19.75308641975308,0)" xlink:href="#ab"/></g><path fill="#3a414a" d="M185-189c-5-48-123-54-124 2 14 75 158 14 163 119 3 78-121 87-175 55-17-10-28-26-33-46l33-7c5 56 141 63 141-1 0-78-155-14-162-118-5-82 145-84 179-34 5 7 8 16 11 25" id="ac"/><g id="l"><use transform="matrix(0.049382716049382706,0,0,0.049382716049382706,0,0)" xlink:href="#ac"/><use transform="matrix(0.049382716049382706,0,0,0.049382716049382706,11.85185185185185,0)" xlink:href="#Z"/><use transform="matrix(0.049382716049382706,0,0,0.049382716049382706,20.740740740740737,0)" xlink:href="#X"/><use transform="matrix(0.049382716049382706,0,0,0.049382716049382706,30.617283950617278,0)" xlink:href="#Q"/><use transform="matrix(0.049382716049382706,0,0,0.049382716049382706,36.49382716049382,0)" xlink:href="#P"/></g><path fill="#3a414a" d="M496-1349c439 0 656 222 653 664C1146-265 969 0 556 0H135v-1349h361zm36 1121c245-7 319-187 320-457 1-273-91-439-361-436h-61v893h102" id="ad"/><path fill="#3a414a" d="M616-1102c361 0 521 202 521 560 0 354-171 562-527 562C259 20 92-192 92-542c0-351 169-560 524-560zm-9 930c200-2 236-165 236-370 0-199-27-367-223-367-195 0-233 146-233 367 0 129 18 223 55 282s92 88 165 88" id="ae"/><path fill="#3a414a" d="M934-1102c199 0 220 177 220 381V0H926c-2-260 10-533-4-785-4-72-14-138-83-138-34 0-61 27-81 81s-29 134-29 241V0H501c-2-260 9-533-5-785-4-72-13-138-82-138-46 0-65 47-80 93-21 67-30 155-30 248V0H75c-3-360 6-732-6-1082h209c6 50 3 123 8 175 36-100 83-195 216-195 135 0 166 79 196 196 42-105 93-196 236-196" id="af"/><path fill="#3a414a" d="M775-193C708-75 621 20 439 20 226 20 106-93 106-306c0-251 170-341 417-346l223-4c4-143-12-264-148-264-103 0-141 58-150 153l-293-14c37-219 194-321 455-321 263 0 418 130 417 390v392c1 84 5 161 89 160 21 0 42-2 62-6v152c-57 15-108 27-180 26-145 0-202-73-217-205h-6zm-256 17c168 0 234-139 227-325-166 4-347-25-347 173 0 94 33 152 120 152" id="ag"/><path fill="#3a414a" d="M794-190h353V0H118v-190h395v-702H223v-190h571v892zM513-1277v-207h281v207H513" id="ah"/><path fill="#3a414a" d="M768-1103c247 0 336 167 336 416V0H824v-619c-3-164-24-273-171-273-164 0-229 142-229 312V0H143c-4-359 9-736-8-1082h268c7 63 12 146 13 215h4c67-145 160-236 348-236" id="ai"/><g id="m"><use transform="matrix(0.010850694444444444,0,0,0.010850694444444444,0,0)" xlink:href="#ad"/><use transform="matrix(0.010850694444444444,0,0,0.010850694444444444,13.335503472222221,0)" xlink:href="#ae"/><use transform="matrix(0.010850694444444444,0,0,0.010850694444444444,26.671006944444443,0)" xlink:href="#af"/><use transform="matrix(0.010850694444444444,0,0,0.010850694444444444,40.006510416666664,0)" xlink:href="#ag"/><use transform="matrix(0.010850694444444444,0,0,0.010850694444444444,53.342013888888886,0)" xlink:href="#ah"/><use transform="matrix(0.010850694444444444,0,0,0.010850694444444444,66.67751736111111,0)" xlink:href="#ai"/></g><path fill="#3a414a" d="M1229 0H935l-92-330H387L295 0H0l443-1349h344zM615-1167c-46 213-110 412-166 615h332c-56-204-119-401-166-615" id="aj"/><use transform="matrix(0.010850694444444444,0,0,0.010850694444444444,0,0)" xlink:href="#aj" id="n"/><g id="o"><use transform="matrix(0.011935763888888886,0,0,0.011935763888888886,0,0)" xlink:href="#H"/><use transform="matrix(0.011935763888888886,0,0,0.011935763888888886,14.669053819444441,0)" xlink:href="#I"/><use transform="matrix(0.011935763888888886,0,0,0.011935763888888886,29.338107638888882,0)" xlink:href="#B"/><use transform="matrix(0.011935763888888886,0,0,0.011935763888888886,44.00716145833332,0)" xlink:href="#J"/><use transform="matrix(0.011935763888888886,0,0,0.011935763888888886,58.676215277777764,0)" xlink:href="#B"/><use transform="matrix(0.011935763888888886,0,0,0.011935763888888886,73.3452690972222,0)" xlink:href="#w"/></g><g id="p"><use transform="matrix(0.011935763888888886,0,0,0.011935763888888886,0,0)" xlink:href="#K"/><use transform="matrix(0.011935763888888886,0,0,0.011935763888888886,14.669053819444441,0)" xlink:href="#w"/><use transform="matrix(0.011935763888888886,0,0,0.011935763888888886,29.338107638888882,0)" xlink:href="#D"/><use transform="matrix(0.011935763888888886,0,0,0.011935763888888886,44.00716145833332,0)" xlink:href="#L"/><use transform="matrix(0.011935763888888886,0,0,0.011935763888888886,58.676215277777764,0)" xlink:href="#M"/><use transform="matrix(0.011935763888888886,0,0,0.011935763888888886,73.3452690972222,0)" xlink:href="#I"/><use transform="matrix(0.011935763888888886,0,0,0.011935763888888886,88.01432291666664,0)" xlink:href="#A"/></g><path fill="#3a414a" d="M836-709c204 20 350 118 350 324C1186-112 992 0 719 0H137v-1349h525c258 3 443 87 443 339 0 176-107 269-269 301zM643-811c107 0 165-53 165-159 0-113-61-160-167-160H432v319h211zm46 592c128-1 201-59 200-191-1-128-80-183-207-183H432v374h257" id="ak"/><use transform="matrix(0.010850694444444444,0,0,0.010850694444444444,0,0)" xlink:href="#ak" id="q"/><path fill="#3a414a" d="M709-1193V0H519v-1193H76v-156h1076v156H709" id="al"/><path fill="#3a414a" d="M1121-976c0 225-142 341-344 379L1177 0H957L591-575H353V0H162v-1349h482c281 3 477 100 477 373zM633-726c181-1 296-73 296-247 0-149-101-223-304-223H353v470h280" id="am"/><path fill="#3a414a" d="M1034 0L896-382H333L196 0H0l510-1349h217L1228 0h-194zM847-531c-77-225-157-447-231-674-69 231-154 451-232 674h463" id="an"/><path fill="#3a414a" d="M202-1349h823v156H709v1037h316V0H202v-156h316v-1037H202v-156" id="ao"/><path fill="#3a414a" d="M912-211c-10-84-18-177-18-274v-864h172V0H836L316-1130c7 79 16 167 16 254V0H162v-1349h222" id="ap"/><path fill="#3a414a" d="M655-135c108 0 195-33 260-74v-336H622v-160h479v572C981-54 839 20 639 20c-388 0-526-306-526-701 0-406 129-689 529-689 261 0 392 137 461 331l-171 56c-47-131-122-231-288-231-281 0-330 245-330 533 0 179 28 314 84 407s142 139 257 139" id="aq"/><g id="r"><use transform="matrix(0.011935763888888886,0,0,0.011935763888888886,0,0)" xlink:href="#al"/><use transform="matrix(0.011935763888888886,0,0,0.011935763888888886,14.669053819444441,0)" xlink:href="#am"/><use transform="matrix(0.011935763888888886,0,0,0.011935763888888886,29.338107638888882,0)" xlink:href="#an"/><use transform="matrix(0.011935763888888886,0,0,0.011935763888888886,44.00716145833332,0)" xlink:href="#ao"/><use transform="matrix(0.011935763888888886,0,0,0.011935763888888886,58.676215277777764,0)" xlink:href="#ap"/><use transform="matrix(0.011935763888888886,0,0,0.011935763888888886,73.3452690972222,0)" xlink:href="#ao"/><use transform="matrix(0.011935763888888886,0,0,0.011935763888888886,88.01432291666664,0)" xlink:href="#ap"/><use transform="matrix(0.011935763888888886,0,0,0.011935763888888886,102.68337673611109,0)" xlink:href="#aq"/></g><path fill="#3a414a" d="M385-1193v494h676v158H385V0H194v-1349h891v156H385" id="ar"/><path fill="#3a414a" d="M162 0v-1349h919v156H353v422h668v154H353v461h769V0H162" id="as"/><path fill="#3a414a" d="M650-1214c-281 0-336 244-336 533 0 295 60 546 347 546 188 0 263-142 322-282l159 65C1058-155 935 20 659 20c-401 0-546-295-546-701 0-407 135-689 536-689 264 0 391 146 466 335l-168 65c-47-129-127-244-297-244" id="at"/><g id="s"><use transform="matrix(0.011935763888888886,0,0,0.011935763888888886,0,0)" xlink:href="#ao"/><use transform="matrix(0.011935763888888886,0,0,0.011935763888888886,14.669053819444441,0)" xlink:href="#ap"/><use transform="matrix(0.011935763888888886,0,0,0.011935763888888886,29.338107638888882,0)" xlink:href="#ar"/><use transform="matrix(0.011935763888888886,0,0,0.011935763888888886,44.00716145833332,0)" xlink:href="#as"/><use transform="matrix(0.011935763888888886,0,0,0.011935763888888886,58.676215277777764,0)" xlink:href="#am"/><use transform="matrix(0.011935763888888886,0,0,0.011935763888888886,73.3452690972222,0)" xlink:href="#as"/><use transform="matrix(0.011935763888888886,0,0,0.011935763888888886,88.01432291666664,0)" xlink:href="#ap"/><use transform="matrix(0.011935763888888886,0,0,0.011935763888888886,102.68337673611109,0)" xlink:href="#at"/><use transform="matrix(0.011935763888888886,0,0,0.011935763888888886,117.35243055555553,0)" xlink:href="#as"/></g></defs></g></svg>